<svg xmlns="http://www.w3.org/2000/svg" xmlns:xlink="http://www.w3.org/1999/xlink" width="1250" height="250"><g fill="#FFF"><path d="M24.834,141c8.837,0,16-7.163,16-16s-7.163-16-16-16c-8.837,0-16,7.163-16,16S15.997,141,24.834,141z M24.834,111c7.732,0,14,6.268,14,14s-6.268,14-14,14c-7.732,0-14-6.268-14-14S17.102,111,24.834,111z"/><path d="M20.834,134h2v-3h6v-2h-6v-2h4c2.761,0,5-2.239,5-5s-2.239-5-5-5h-6v8h-2v2h2v2h-2v2h2V134z M22.834,119h4c1.657,0,3,1.343,3,3s-1.343,3-3,3h-4V119z"/></g><g fill="#00B956"><path d="M24.834,91c8.837,0,16-7.163,16-16c0-8.837-7.163-16-16-16c-8.837,0-16,7.164-16,16 C8.834,83.836,15.997,91,24.834,91z M24.834,61c7.732,0,14,6.268,14,14c0,7.732-6.268,14-14,14c-7.732,0-14-6.268-14-14 C10.834,67.268,17.102,61,24.834,61z"/><path d="M20.834,84h2v-3h6v-2h-6v-2h4c2.761,0,5-2.239,5-5c0-2.761-2.239-5-5-5h-6v8h-2v2h2v2h-2v2h2V84z M22.834,69h4c1.657,0,3,1.343,3,3c0,1.657-1.343,3-3,3h-4V69z"/></g><g fill="#FFF"><path d="M72.834,141c2.8,0,5.5-0.8,8-2.2c1.3,1.3,3.1,2.2,5,2.2c3.9,0,7-3.1,7-7c0-2.9-1.7-5.3-4.2-6.4 c0.1-0.9,0.2-1.7,0.2-2.6c0-8.8-7.2-16-16-16c-8.8,0-16,7.2-16,16S64.034,141,72.834,141z M85.834,139c-2.8,0-5-2.2-5-5 s2.2-5,5-5c1.3,0,2.4,0.5,3.3,1.2l-3.3,3.5l-1.3-1.4l-1.5,1.3l2.1,2.3h1.3l3.9-4.1c0.3,0.7,0.5,1.4,0.5,2.1 C90.834,136.8,88.634,139,85.834,139z M72.834,111c7.7,0,14,6.3,14,14c0,0.7-0.1,1.4-0.2,2.1c-0.3,0-0.5-0.1-0.8-0.1 c-3.9,0-7,3.1-7,7c0,1.2,0.3,2.2,0.8,3.2c-2.1,1.2-4.4,1.8-6.8,1.8c-7.7,0-14-6.3-14-14S65.134,111,72.834,111z"/><path d="M68.834,134h2v-2h6v-2h-6v-3h4c2.8,0,5-2.2,5-5s-2.2-5-5-5h-6v8h-2v2h2v3h-2v2h2V134z M70.834,119h4 c1.7,0,3,1.3,3,3s-1.3,3-3,3h-4V119z"/></g><g fill="#00B956"><path d="M72.834,91c2.8,0,5.5-0.8,8-2.2c1.3,1.3,3.1,2.2,5,2.2c3.9,0,7-3.1,7-7c0-2.9-1.7-5.3-4.2-6.4 c0.1-0.9,0.2-1.7,0.2-2.6c0-8.8-7.2-16-16-16c-8.8,0-16,7.2-16,16S64.034,91,72.834,91z M85.834,89c-2.8,0-5-2.2-5-5 c0-2.8,2.2-5,5-5c1.3,0,2.4,0.5,3.3,1.2l-3.3,3.5l-1.3-1.4l-1.5,1.3l2.1,2.3h1.3l3.9-4.1c0.3,0.7,0.5,1.4,0.5,2.1 C90.834,86.8,88.634,89,85.834,89z M72.834,61c7.7,0,14,6.3,14,14c0,0.7-0.1,1.4-0.2,2.1c-0.3,0-0.5-0.1-0.8-0.1 c-3.9,0-7,3.1-7,7c0,1.2,0.3,2.2,0.8,3.2c-2.1,1.2-4.4,1.8-6.8,1.8c-7.7,0-14-6.3-14-14S65.134,61,72.834,61z"/><path d="M68.834,84h2v-2h6v-2h-6v-3h4c2.8,0,5-2.2,5-5c0-2.8-2.2-5-5-5h-6v8h-2v2h2v3h-2v2h2V84z M70.834,69h4 c1.7,0,3,1.3,3,3c0,1.7-1.3,3-3,3h-4V69z"/></g><g fill="#FFF"><path d="M141,122c0-7.2-5.8-13-13-13h-1v14h14V122z M129,121v-10c5.3,0.5,9.5,4.7,10,10H129z"/><path d="M124,139c3.5,0,6.7-1.4,9.2-3.8l0.7-0.7l0,0c2-2.4,3.1-5.3,3.1-8.4v-1h-12V113h-1 c-3.5,0-6.7,1.4-9.2,3.8c-2.4,2.5-3.8,5.7-3.8,9.2C111,133.2,116.8,139,124,139z M132.4,133l-6-6h8.6 C134.8,129.2,133.9,131.3,132.4,133z M116.2,118.2c1.8-1.8,4.2-2.9,6.8-3.2v11.4l8,8c-2,1.7-4.4,2.5-7,2.5c-6.1,0-11-4.9-11-11 C113,123.1,114.1,120.3,116.2,118.2z"/></g><g fill="#00B956"><path d="M141,72c0-7.2-5.8-13-13-13h-1v14h14V72z M129,71V61c5.3,0.5,9.5,4.7,10,10H129z"/><path d="M124,89c3.5,0,6.7-1.4,9.2-3.8l0.7-0.7l0,0c2-2.4,3.1-5.3,3.1-8.4v-1h-12V63h-1c-3.5,0-6.7,1.4-9.2,3.8 c-2.4,2.5-3.8,5.7-3.8,9.2C111,83.2,116.8,89,124,89z M132.4,83l-6-6h8.6C134.8,79.2,133.9,81.3,132.4,83z M116.2,68.2 c1.8-1.8,4.2-2.9,6.8-3.2v11.4l8,8c-2,1.7-4.4,2.5-7,2.5c-6.1,0-11-4.9-11-11C113,73.1,114.1,70.3,116.2,68.2z"/></g><g fill="#FFF"><path d="M161.1 115c0 3.3 2.7 6 6 6 3.3 0 6-2.7 6-6s-2.7-6-6-6C163.8 109 161.1 111.7 161.1 115zM171 115c0 2.2-1.8 4-4 4s-4-1.8-4-4 1.8-4 4-4S171 112.8 171 115zM181 123h-4v6h-2v2h2v2h-2v2h2v2h2v-2h3v-2h-3v-2h2c2.2 0 4-1.8 4-4S183.2 123 181 123zM181 129h-2v-4h2c1.1 0 2 .9 2 2C183 128.1 182.1 129 181 129z"/><path d="M180,119c-3.7,0-7,1.8-8.9,4.7c-1.3-0.4-2.7-0.7-4.1-0.7c-4.1,0-7.4,2.1-7.5,2.2l-0.5,0.3l2,15.5h12.1 l0.3-2.3c1.8,1.4,4.2,2.3,6.7,2.3c6,0,11-4.9,11-11C191.1,123.9,186.1,119,180,119z M162.7,139l-1.6-12.5 c1-0.5,3.3-1.5,5.9-1.5c1,0,2,0.2,3.1,0.5c-0.6,1.4-1,2.9-1,4.5c0,2.6,0.9,5.1,2.5,7l-0.3,2H162.7z M180,139c-4.9,0-9-4-9-9 s4-9,9-9s9,4,9,9S185,139,180,139z"/></g><g fill="#00B956"><path d="M161.1 65c0 3.3 2.7 6 6 6 3.3 0 6-2.7 6-6 0-3.3-2.7-6-6-6C163.8 59 161.1 61.7 161.1 65zM171 65c0 2.2-1.8 4-4 4s-4-1.8-4-4c0-2.2 1.8-4 4-4S171 62.8 171 65zM181 73h-4v6h-2v2h2v2h-2v2h2v2h2v-2h3v-2h-3v-2h2c2.2 0 4-1.8 4-4C185 74.8 183.2 73 181 73zM181 79h-2v-4h2c1.1 0 2 .9 2 2C183 78.1 182.1 79 181 79z"/><path d="M180,69c-3.7,0-7,1.8-8.9,4.7c-1.3-0.4-2.7-0.7-4.1-0.7c-4.1,0-7.4,2.1-7.5,2.2l-0.5,0.3l2,15.5h12.1 l0.3-2.3c1.8,1.4,4.2,2.3,6.7,2.3c6,0,11-4.9,11-11C191.1,73.9,186.1,69,180,69z M162.7,89l-1.6-12.5c1-0.5,3.3-1.5,5.9-1.5 c1,0,2,0.2,3.1,0.5c-0.6,1.4-1,2.9-1,4.5c0,2.6,0.9,5.1,2.5,7l-0.3,2H162.7z M180,89c-4.9,0-9-4-9-9s4-9,9-9s9,4,9,9 S185,89,180,89z"/></g><path fill="#FFF" d="M236,115c0-3.3-2.7-6-6-6c-2.1,0-3.9,1.1-5,2.7c-1.1-1.6-2.9-2.7-5-2.7c-3.3,0-6,2.7-6,6 c0,1.5,0.6,2.9,1.6,4H211v10h2v12h24v-12h2v-10h-4.6C235.4,117.9,236,116.5,236,115z M230,111c2.2,0,4,1.8,4,4s-1.8,4-4,4h-4v-4 C226,112.8,227.8,111,230,111z M216,115c0-2.2,1.8-4,4-4s4,1.8,4,4v4h-4C217.8,119,216,117.2,216,115z M215,129h9v10h-9V129z M235,139h-9v-10h9V139z M237,127h-24v-6h7h4h2h4h7V127z"/><path fill="#00B956" d="M236,65c0-3.3-2.7-6-6-6c-2.1,0-3.9,1.1-5,2.7c-1.1-1.6-2.9-2.7-5-2.7c-3.3,0-6,2.7-6,6 c0,1.5,0.6,2.9,1.6,4H211v10h2v12h24V79h2V69h-4.6C235.4,67.9,236,66.5,236,65z M230,61c2.2,0,4,1.8,4,4c0,2.2-1.8,4-4,4h-4v-4 C226,62.8,227.8,61,230,61z M216,65c0-2.2,1.8-4,4-4s4,1.8,4,4v4h-4C217.8,69,216,67.2,216,65z M215,79h9v10h-9V79z M235,89h-9 V79h9V89z M237,77h-24v-6h7h4h2h4h7V77z"/><g fill="#FFF"><path d="M285,113h-4.44l-2-4h-7.17l-2.06,4H265v28h20V113z M272.61,111h4.71l1,2h-6.74L272.61,111z M283,139 h-16v-24h16V139z"/><path d="M271 133H279V135H271zM271 127H279V129H271z"/></g><g fill="#00B956"><path d="M285,63h-4.44l-2-4h-7.17l-2.06,4H265v28h20V63z M272.61,61h4.71l1,2h-6.74L272.61,61z M283,89h-16V65 h16V89z"/><path d="M271 83H279V85H271zM271 77H279V79H271z"/></g><g fill="#FFF"><path d="M309 123h12v-12h-12V123zM311 113h8v8h-8V113zM309 139h12v-12h-12V139zM311 129h8v8h-8V129zM325 111H337V113H325zM325 116H341V118H325zM325 121H331V123H325zM325 127H339V129H325zM325 137H341V139H325zM325 132H333V134H325z"/></g><g fill="#00B956"><path d="M309 73h12V61h-12V73zM311 63h8v8h-8V63zM309 89h12V77h-12V89zM311 79h8v8h-8V79zM325 61H337V63H325zM325 66H341V68H325zM325 71H331V73H325zM325 77H339V79H325zM325 87H341V89H325zM325 82H333V84H325z"/></g><g fill="#FFF"><path d="M387,109h-14.45L363,119.62V141h24V109z M385,139h-20v-18.62l8.45-9.38H385V139z"/><path d="M369,135h12v-12h-12V135z M371,125h8v8h-8V125z"/></g><g fill="#00B956"><path d="M387,59.625h-14.45L363,70.245v21.38h24V59.625z M385,89.625h-20v-18.62l8.45-9.38H385V89.625z"/><path d="M369,85.625h12v-12h-12V85.625z M371,75.625h8v8h-8V75.625z"/></g><path fill="#FFF" d="M425,109c-8.8,0-16,7.2-16,16s7.2,16,16,16s16-7.2,16-16S433.8,109,425,109z M414.2,116.1l0.9,0.4 c1.5,0.6,2.3,2.3,1.7,3.8l-1.8,5.6c-0.5,1.3-1.6,2.1-2.9,2.1h-0.8c-0.2-1-0.3-2-0.3-3C411,121.6,412.2,118.6,414.2,116.1z M411.9,130h0.2c2.2,0,4.1-1.4,4.8-3.5l1.8-5.6c0.9-2.5-0.4-5.3-2.9-6.3l-0.1-0.1c2.4-2.1,5.7-3.5,9.3-3.5c4.3,0,8.1,1.9,10.7,5 H431c-1.6,0-3,1-3.6,2.4l-1.7,4.2c-0.5,1.3-0.5,2.7,0.1,4c0.6,1.3,1.6,2.2,3,2.6c0.8,0.3,1.3,1,1.3,1.8v7 c-1.6,0.6-3.2,0.9-5,0.9C419,139,414,135.3,411.9,130z M432,137.1v-6c0-1.7-1.1-3.2-2.7-3.7c-0.8-0.3-1.4-0.8-1.8-1.6 c-0.4-0.8-0.4-1.6-0.1-2.4l1.7-4.2c0.3-0.7,1-1.2,1.7-1.2h6.2c1.2,2.1,1.9,4.4,1.9,7C439,130.2,436.2,134.7,432,137.1z"/><path fill="#00B956" d="M425,59c-8.8,0-16,7.2-16,16s7.2,16,16,16s16-7.2,16-16S433.8,59,425,59z M414.2,66.1l0.9,0.4 c1.5,0.6,2.3,2.3,1.7,3.8l-1.8,5.6c-0.5,1.3-1.6,2.1-2.9,2.1h-0.8c-0.2-1-0.3-2-0.3-3C411,71.6,412.2,68.6,414.2,66.1z M411.9,80 h0.2c2.2,0,4.1-1.4,4.8-3.5l1.8-5.6c0.9-2.5-0.4-5.3-2.9-6.3l-0.1-0.1c2.4-2.1,5.7-3.5,9.3-3.5c4.3,0,8.1,1.9,10.7,5H431 c-1.6,0-3,1-3.6,2.4l-1.7,4.2c-0.5,1.3-0.5,2.7,0.1,4c0.6,1.3,1.6,2.2,3,2.6c0.8,0.3,1.3,1,1.3,1.8v7c-1.6,0.6-3.2,0.9-5,0.9 C419,89,414,85.3,411.9,80z M432,87.1v-6c0-1.7-1.1-3.2-2.7-3.7c-0.8-0.3-1.4-0.8-1.8-1.6c-0.4-0.8-0.4-1.6-0.1-2.4l1.7-4.2 c0.3-0.7,1-1.2,1.7-1.2h6.2c1.2,2.1,1.9,4.4,1.9,7C439,80.2,436.2,84.7,432,87.1z"/><path fill="#FFF" d="M474.5,127h-5v6h-8v8h28v-10h-8v-4h-5v-4.1c1.5-0.2,2.8-0.9,3.9-1.9h3.1c2.8,0,5-2.2,5-5s-2.2-5-5-5h-1 v-2h-14v2h-1c-2.8,0-5,2.2-5,5s2.2,5,5,5h3.1c1,1,2.4,1.7,3.9,1.9V127z M487.5,133v6h-24v-4h8v-6h8v4H487.5z M483.5,113 c1.7,0,3,1.3,3,3s-1.3,3-3,3h-1.7c0.4-0.9,0.7-1.9,0.7-3v-3H483.5z M464.5,116c0-1.7,1.3-3,3-3h1v3c0,1.1,0.3,2.1,0.7,3h-1.7 C465.8,119,464.5,117.7,464.5,116z M470.5,116v-5h10v5c0,2.8-2.2,5-5,5S470.5,118.8,470.5,116z"/><path fill="#00B956" d="M474.5,77h-5v6h-8v8h28V81h-8v-4h-5v-4.1c1.5-0.2,2.8-0.9,3.9-1.9h3.1c2.8,0,5-2.2,5-5c0-2.8-2.2-5-5-5 h-1v-2h-14v2h-1c-2.8,0-5,2.2-5,5c0,2.8,2.2,5,5,5h3.1c1,1,2.4,1.7,3.9,1.9V77z M487.5,83v6h-24v-4h8v-6h8v4H487.5z M483.5,63 c1.7,0,3,1.3,3,3c0,1.7-1.3,3-3,3h-1.7c0.4-0.9,0.7-1.9,0.7-3v-3H483.5z M464.5,66c0-1.7,1.3-3,3-3h1v3c0,1.1,0.3,2.1,0.7,3 h-1.7C465.8,69,464.5,67.7,464.5,66z M470.5,66v-5h10v5c0,2.8-2.2,5-5,5S470.5,68.8,470.5,66z"/><path fill="#FFF" d="M536.5,132c-0.8-0.6-1.9-1-3-1c-2.8,0-5,2.2-5,5s2.2,5,5,5s5-2.2,5-5v-22.8l-16.9-4.2l-1.1,0.9V128 c-0.8-0.6-1.9-1-3-1c-2.8,0-5,2.2-5,5s2.2,5,5,5s5-2.2,5-5v-13.8l14,3.5V132z M533.5,139c-1.7,0-3-1.3-3-3s1.3-3,3-3s3,1.3,3,3 S535.2,139,533.5,139z M517.5,135c-1.7,0-3-1.3-3-3s1.3-3,3-3s3,1.3,3,3S519.2,135,517.5,135z M522.5,116.2v-4.9l14,3.5v4.9 L522.5,116.2z"/><path fill="#00B956" d="M536.5,82c-0.8-0.6-1.9-1-3-1c-2.8,0-5,2.2-5,5c0,2.8,2.2,5,5,5s5-2.2,5-5V63.2L521.6,59l-1.1,0.9V78 c-0.8-0.6-1.9-1-3-1c-2.8,0-5,2.2-5,5c0,2.8,2.2,5,5,5s5-2.2,5-5V68.2l14,3.5V82z M533.5,89c-1.7,0-3-1.3-3-3c0-1.7,1.3-3,3-3 s3,1.3,3,3C536.5,87.7,535.2,89,533.5,89z M517.5,85c-1.7,0-3-1.3-3-3c0-1.7,1.3-3,3-3s3,1.3,3,3C520.5,83.7,519.2,85,517.5,85 z M522.5,66.2v-4.9l14,3.5v4.9L522.5,66.2z"/><g transform="translate(175 347)"><defs><filter id="a" width="40" height="40" x="380" y="-242" filterUnits="userSpaceOnUse"><feColorMatrix values="1 0 0 0 0 0 1 0 0 0 0 0 1 0 0 0 0 0 1 0"/></filter></defs><mask id="b" width="40" height="40" x="380" y="-242" maskUnits="userSpaceOnUse"><path fill="#FFF" d="M390-206h20v-32h-20V-206z M392-236h16v28h-16V-236z M402-212c0,1.1-0.9,2-2,2 s-2-0.9-2-2c0-1.1,0.9-2,2-2S402-213.1,402-212z M396-234h8v2h-8V-234z" filter="url(#a)"/></mask><g mask="url(#b)"><path fill="#FFF" d="M380 -242H420V-202H380z"/></g></g><g transform="translate(175 347)"><defs><filter id="c" width="40" height="40" x="380" y="-291.95" filterUnits="userSpaceOnUse"><feColorMatrix values="1 0 0 0 0 0 1 0 0 0 0 0 1 0 0 0 0 0 1 0"/></filter></defs><mask id="d" width="40" height="40" x="380" y="-291.95" maskUnits="userSpaceOnUse"><path fill="#FFF" d="M390-255.95h20v-32h-20V-255.95z M392-285.95h16v28h-16V-285.95z M402-261.95 c0,1.1-0.9,2-2,2s-2-0.9-2-2c0-1.1,0.9-2,2-2S402-263.05,402-261.95z M396-283.95h8v2h-8V-283.95z" filter="url(#c)"/></mask><g mask="url(#d)"><path fill="#00B956" d="M380 -291.95H420V-251.95H380z"/></g></g><g fill="#FFF"><path d="M624,130.69V135h2v-4.31c0.606-0.35,0.985-0.991,1-1.69c0-1.105-0.895-2-2-2s-2,0.895-2,2 C623.015,129.699,623.394,130.34,624,130.69z"/><path d="M625,141c5.523,0,10-4.477,10-10v-10h-2v-4c0-4.418-3.582-8-8-8c-4.418,0-8,3.582-8,8v4h-2v10 C615,136.523,619.477,141,625,141z M619,117c0-3.314,2.686-6,6-6c3.314,0,6,2.686,6,6v4h-12V117z M617,123h16v8 c0,4.418-3.582,8-8,8c-4.418,0-8-3.582-8-8V123z"/></g><g fill="#00B956"><path d="M624,80.69V85h2v-4.31c0.606-0.35,0.985-0.991,1-1.69c0-1.104-0.895-2-2-2s-2,0.896-2,2 C623.015,79.699,623.394,80.34,624,80.69z"/><path d="M625,91c5.523,0,10-4.477,10-10V71h-2v-4c0-4.418-3.582-8-8-8c-4.418,0-8,3.582-8,8v4h-2v10 C615,86.523,619.477,91,625,91z M619,67c0-3.314,2.686-6,6-6c3.314,0,6,2.686,6,6v4h-12V67z M617,73h16v8c0,4.418-3.582,8-8,8 c-4.418,0-8-3.582-8-8V73z"/></g><defs><filter id="e" width="44" height="44" x="653" y="103.5" filterUnits="userSpaceOnUse"><feColorMatrix values="1 0 0 0 0 0 1 0 0 0 0 0 1 0 0 0 0 0 1 0"/></filter></defs><mask id="f" width="44" height="44" x="653" y="103.5" maskUnits="userSpaceOnUse"><path fill="#FFF" d="M681,137.5h6v-14.616L676.754,111.5h-3.508L663,122.884V137.5h6v-8 c0-3.308,2.692-6,6-6s6,2.692,6,6V137.5z M689,139.5h-10v-10c0-2.206-1.794-4-4-4s-4,1.794-4,4v10h-10v-17.384l11.354-12.616 h5.292L689,122.116V139.5z" filter="url(#e)"/></mask><g mask="url(#f)"><path fill="#FFF" d="M655 105.5H699V149.5H655z" transform="translate(-2 -2)"/></g><defs><filter id="g" width="44" height="44" x="653" y="53.05" filterUnits="userSpaceOnUse"><feColorMatrix values="1 0 0 0 0 0 1 0 0 0 0 0 1 0 0 0 0 0 1 0"/></filter></defs><mask id="h" width="44" height="44" x="653" y="53.05" maskUnits="userSpaceOnUse"><path fill="#FFF" d="M681,87.05h6V72.434L676.754,61.05h-3.508L663,72.434V87.05h6v-8c0-3.308,2.692-6,6-6 s6,2.692,6,6V87.05z M689,89.05h-10v-10c0-2.206-1.794-4-4-4s-4,1.794-4,4v10h-10V71.666l11.354-12.616h5.292L689,71.666 V89.05z" filter="url(#g)"/></mask><g mask="url(#h)"><path fill="#00B956" d="M655 55.05H699V99.05H655z" transform="translate(-2 -2)"/></g><path fill="#FFF" d="M725.936,108.999c-8.837,0-16,7.163-16,16c0.003,2.058,0.408,4.096,1.19,6l-3.19,6.22l3.38,3.78l7-2 c7.732,4.278,17.468,1.477,21.746-6.255c4.278-7.732,1.477-17.468-6.255-21.746 C731.398,109.666,728.688,108.978,725.936,108.999z M725.936,138.999c-2.46-0.007-4.874-0.663-7-1.9l-0.37-0.21l-6.55,1.85 l-1.72-1.81l3-5.85l-0.19-0.42c-3.126-7.072,0.073-15.339,7.145-18.465c7.072-3.126,15.339,0.073,18.465,7.145 c3.126,7.072-0.073,15.339-7.145,18.465C729.796,138.589,727.877,138.995,725.936,138.999z M721.936,124.999 c0,1.105-0.895,2-2,2s-2-0.895-2-2s0.895-2,2-2S721.936,123.894,721.936,124.999z M727.936,124.999c0,1.105-0.895,2-2,2 s-2-0.895-2-2s0.895-2,2-2S727.936,123.894,727.936,124.999z M733.936,124.999c0,1.105-0.895,2-2,2s-2-0.895-2-2s0.895-2,2-2 S733.936,123.894,733.936,124.999z"/><path fill="#00B956" d="M725.936,58.999c-8.837,0-16,7.163-16,16c0.003,2.058,0.408,4.096,1.19,6l-3.19,6.22l3.38,3.78l7-2 c7.732,4.277,17.468,1.477,21.746-6.255c4.278-7.732,1.477-17.468-6.255-21.746C731.398,59.666,728.688,58.977,725.936,58.999z M725.936,88.999c-2.46-0.007-4.874-0.663-7-1.9l-0.37-0.21l-6.55,1.85l-1.72-1.81l3-5.85l-0.19-0.42 c-3.126-7.072,0.073-15.339,7.145-18.465c7.072-3.126,15.339,0.073,18.465,7.145c3.126,7.072-0.073,15.339-7.145,18.465 C729.796,88.588,727.877,88.995,725.936,88.999z M721.936,74.999c0,1.104-0.895,2-2,2s-2-0.896-2-2c0-1.105,0.895-2,2-2 S721.936,73.894,721.936,74.999z M727.936,74.999c0,1.104-0.895,2-2,2s-2-0.896-2-2c0-1.105,0.895-2,2-2 S727.936,73.894,727.936,74.999z M733.936,74.999c0,1.104-0.895,2-2,2s-2-0.896-2-2c0-1.105,0.895-2,2-2 S733.936,73.894,733.936,74.999z"/><g fill="#FFF"><path d="M775.05,119.05c-3.3,0-6,2.7-6,6s2.7,6,6,6s6-2.7,6-6S778.35,119.05,775.05,119.05z M775.05,129.05 c-2.2,0-4-1.8-4-4c0-2.2,1.8-4,4-4s4,1.8,4,4C779.05,127.25,777.25,129.05,775.05,129.05z"/><path d="M788.35,115.65l-3.9-3.9l-4.5,1.5l-2.1-4.2h-5.5l-2.1,4.2l-4.5-1.5l-3.9,3.9l1.5,4.5l-4.3,2.1v5.5 l4.2,2.1l-1.5,4.5l3.9,3.9l4.5-1.5l2.1,4.2h5.5l2.1-4.2l4.5,1.5l3.9-3.9l-1.5-4.5l4.2-2.1v-5.5l-4.2-2.1L788.35,115.65z M789.05,123.55v3.1l-4.1,2l-0.4,0.9l1.4,4.3l-2.1,2.2l-4.3-1.4l-0.9,0.4l-2,4.1h-3.1l-2-4.1l-0.9-0.4l-4.4,1.4l-2.2-2.2 l1.4-4.3l-0.4-0.9l-4.1-2v-3.1l4.1-2l0.4-0.9l-1.4-4.4l2.2-2.2l4.3,1.4l0.9-0.4l2-4.1h3.1l2,4.1l0.9,0.4l4.4-1.4l2.2,2.2 l-1.4,4.3l0.4,0.9L789.05,123.55z"/></g><g fill="#00B956"><path d="M775.05,69.05c-3.3,0-6,2.7-6,6c0,3.3,2.7,6,6,6s6-2.7,6-6C781.05,71.75,778.35,69.05,775.05,69.05z M775.05,79.05c-2.2,0-4-1.8-4-4c0-2.2,1.8-4,4-4s4,1.8,4,4C779.05,77.25,777.25,79.05,775.05,79.05z"/><path d="M788.35,65.65l-3.9-3.9l-4.5,1.5l-2.1-4.2h-5.5l-2.1,4.2l-4.5-1.5l-3.9,3.9l1.5,4.5l-4.3,2.1v5.5 l4.2,2.1l-1.5,4.5l3.9,3.9l4.5-1.5l2.1,4.2h5.5l2.1-4.2l4.5,1.5l3.9-3.9l-1.5-4.5l4.2-2.1v-5.5l-4.2-2.1L788.35,65.65z M789.05,73.55v3.1l-4.1,2l-0.4,0.9l1.4,4.3l-2.1,2.2l-4.3-1.4l-0.9,0.4l-2,4.1h-3.1l-2-4.1l-0.9-0.4l-4.4,1.4l-2.2-2.2 l1.4-4.3l-0.4-0.9l-4.1-2v-3.1l4.1-2l0.4-0.9l-1.4-4.4l2.2-2.2l4.3,1.4l0.9-0.4l2-4.1h3.1l2,4.1l0.9,0.4l4.4-1.4l2.2,2.2 l-1.4,4.3l0.4,0.9L789.05,73.55z"/></g><g><g fill="#00B956"><path d="M874.871,52.295c-12.682,0-22.999,10.318-22.999,23s10.317,23,22.999,23 c12.678,0,22.995-10.317,22.995-23S887.549,52.295,874.871,52.295 M874.871,94.604c-10.65,0-19.309-8.663-19.309-19.308 s8.658-19.308,19.309-19.308c10.646,0,19.303,8.662,19.303,19.308S885.517,94.604,874.871,94.604"/><path d="M874.785 85.565c-1.293 0-2.333 1.045-2.333 2.337 0 1.292 1.04 2.338 2.333 2.338 1.291 0 2.339-1.046 2.339-2.338C877.124 86.61 876.076 85.565 874.785 85.565M872.884 61.187H876.576V82.065H872.884z"/></g><g fill="#FFF"><path d="M874.871,102.1c-12.683,0-22.999,10.318-22.999,23.001c0,12.682,10.316,22.999,22.999,22.999 c12.679,0,22.995-10.317,22.995-22.999C897.866,112.418,887.55,102.1,874.871,102.1 M874.871,144.409 c-10.65,0-19.309-8.663-19.309-19.309s8.658-19.308,19.309-19.308c10.646,0,19.304,8.662,19.304,19.308 S885.517,144.409,874.871,144.409"/><path d="M874.785 135.37c-1.293 0-2.333 1.044-2.333 2.337 0 1.292 1.04 2.338 2.333 2.338 1.291 0 2.339-1.046 2.339-2.338C877.124 136.414 876.076 135.37 874.785 135.37M872.884 110.992H876.576V131.87H872.884z"/></g></g><g><path fill="#00B956" d="M927,67h-10v-2h10V67z M929,71h-12v2h12V71z M917,79h6v-2h-6V79z M941,84c0,3.866-3.134,7-7,7h-23V59h24 v18.1C938.433,77.595,940.986,80.531,941,84z M929.12,89c-2.749-2.718-2.775-7.15-0.057-9.899 c1.062-1.074,2.443-1.776,3.937-2.001V61h-20v28H929.12z M939,84c-0.004-0.742-0.175-1.473-0.5-2.14L934.63,86h-1.27l-2.1-2.33 l1.48-1.34l1.26,1.41l3.26-3.49c-2.094-1.8-5.251-1.562-7.051,0.531c-1.8,2.094-1.562,5.251,0.531,7.051 c2.094,1.8,5.251,1.562,7.051-0.531C938.581,86.383,939.01,85.21,939,84z"/><path fill="#FFF" d="M927,117h-10v-2h10V117z M929,121h-12v2h12V121z M917,129h6v-2h-6V129z M941,134c0,3.866-3.134,7-7,7 h-23v-32h24v18.1C938.433,127.595,940.986,130.531,941,134z M929.12,139c-2.749-2.718-2.775-7.15-0.057-9.899 c1.062-1.074,2.443-1.776,3.937-2.001V111h-20v28H929.12z M939,134c-0.004-0.742-0.175-1.473-0.5-2.14l-3.87,4.14h-1.27 l-2.1-2.33l1.48-1.34l1.26,1.41l3.26-3.49c-2.094-1.8-5.251-1.562-7.051,0.531c-1.8,2.094-1.562,5.251,0.531,7.051 c2.094,1.8,5.251,1.562,7.051-0.531C938.581,136.383,939.01,135.21,939,134z"/></g><g><g fill="#FFF"><path d="M977 111L977 123 986.14 123 983.43 124.18 984.57 126 989 122.76 989 121.24 984.57 118 983.43 119.82 986.14 121 979 121 979 111zM980.48 139h1l3.52-3.56-7.83-7.83-2.78 2.78c-2.014-1.108-3.672-2.766-4.78-4.78l2.78-2.78-7.83-7.83-3.56 3.56v1C961 129 971 139 980.48 139zM963 119.38l1.56-1.56 5 5-2.4 2.4.33.65c1.412 2.885 3.745 5.218 6.63 6.63l.65.33 2.4-2.4 5 5-1.55 1.57h-.14c-8.23 0-17.48-9.25-17.48-17.48V119.38z"/></g><g fill="#00B956"><path d="M977 61L977 73 986.14 73 983.43 74.18 984.57 76 989 72.76 989 71.24 984.57 68 983.43 69.82 986.14 71 979 71 979 61zM980.48 89h1l3.52-3.56-7.83-7.83-2.78 2.78c-2.014-1.108-3.672-2.766-4.78-4.78l2.78-2.78L964.56 65 961 68.56v1C961 79 971 89 980.48 89zM963 69.38l1.56-1.56 5 5-2.4 2.4.33.65c1.412 2.885 3.745 5.218 6.63 6.63l.65.33 2.4-2.4 5 5L980.62 87h-.14C972.25 87 963 77.75 963 69.52V69.38z"/></g></g><g><path fill="#FFF" d="M1038,124c0-2.376-1.672-4.425-4-4.9V109h-14.45l-9.55,10.62V141h23c3.866,0,7-3.134,7-7v-7h-2V124z M1036,124v3h-6v-3c0-1.657,1.343-3,3-3S1036,122.343,1036,124z M1012,139v-18.62l8.45-9.38H1032v8.1 c-2.341,0.454-4.024,2.515-4,4.9v3h-2v7c0.005,1.884,0.769,3.687,2.12,5H1012z M1038,134c0,2.761-2.239,5-5,5s-5-2.239-5-5v-5 h10V134z M1031,133c0-1.105,0.895-2,2-2s2,0.895,2,2c-0.015,0.699-0.394,1.34-1,1.69V137h-2v-2.31 C1031.394,134.34,1031.015,133.699,1031,133z"/><path fill="#00B956" d="M1038,74c0-2.376-1.672-4.425-4-4.9V59h-14.45L1010,69.62V91h23c3.866,0,7-3.134,7-7v-7h-2V74z M1036,74 v3h-6v-3c0-1.657,1.343-3,3-3S1036,72.343,1036,74z M1012,89V70.38l8.45-9.38H1032v8.1c-2.341,0.454-4.024,2.515-4,4.9v3h-2v7 c0.005,1.884,0.769,3.687,2.12,5H1012z M1038,84c0,2.761-2.239,5-5,5s-5-2.239-5-5v-5h10V84z M1031,83c0-1.104,0.895-2,2-2 s2,0.896,2,2c-0.015,0.7-0.394,1.34-1,1.69V87h-2v-2.31C1031.394,84.34,1031.015,83.699,1031,83z"/></g><g><path fill="#FFF" d="M1078.89,141h1l3.56-3.56l-7.83-7.83l-2.78,2.78c-2.158-1.25-3.95-3.042-5.2-5.2l2.78-2.78l-7.86-7.82 l-3.56,3.55v1C1059.027,132.109,1067.921,140.989,1078.89,141z M1061,121l1.56-1.56l5,5l-2.4,2.4l0.33,0.65 c1.55,3.004,3.996,5.45,7,7l0.65,0.33l2.4-2.4l5,5L1079,139h-0.14c-9.864-0.028-17.849-8.026-17.86-17.89V121z M1072,111v-2 c10.493,0,19,8.507,19,19h-2C1089,118.611,1081.389,111,1072,111z M1072,123v-2c3.866,0,7,3.134,7,7h-2 C1077,125.239,1074.761,123,1072,123z M1072,117v-2c7.18,0,13,5.82,13,13h-2C1083,121.925,1078.075,117,1072,117z"/><path fill="#00B956" d="M1078.89,91h1l3.56-3.56l-7.83-7.83l-2.78,2.78c-2.158-1.25-3.95-3.043-5.2-5.2l2.78-2.78l-7.86-7.82 l-3.56,3.55v1C1059.027,82.108,1067.921,90.989,1078.89,91z M1061,71l1.56-1.56l5,5l-2.4,2.4l0.33,0.65 c1.55,3.004,3.996,5.45,7,7l0.65,0.33l2.4-2.4l5,5L1079,89h-0.14c-9.864-0.028-17.849-8.026-17.86-17.89V71z M1072,61v-2 c10.493,0,19,8.507,19,19h-2C1089,68.611,1081.389,61,1072,61z M1072,73v-2c3.866,0,7,3.134,7,7h-2 C1077,75.238,1074.761,73,1072,73z M1072,67v-2c7.18,0,13,5.82,13,13h-2C1083,71.925,1078.075,67,1072,67z"/></g><g><path fill="#FFF" d="M1128,129h-8v-2h8V129z M1132,121h-12v2h12V121z M1142,125c-0.032,8.836-7.221,15.974-16.058,15.942 c-2.649-0.01-5.255-0.677-7.582-1.942l-7,2l-3.36-3.78l3.19-6.22c-0.782-1.904-1.187-3.942-1.19-6c0-8.837,7.163-16,16-16 S1142,116.163,1142,125z M1140,125c0.006-7.732-6.257-14.005-13.989-14.011c-7.732-0.006-14.005,6.257-14.011,13.989 c-0.001,1.957,0.407,3.893,1.2,5.682l0.19,0.42l-3,5.85l1.72,1.81l6.54-1.85l0.37,0.21c6.702,3.855,15.261,1.547,19.116-5.156 C1139.351,129.831,1139.994,127.438,1140,125z"/><path fill="#00B956" d="M1128,79h-8v-2h8V79z M1132,71h-12v2h12V71z M1142,75c-0.032,8.836-7.221,15.974-16.058,15.942 c-2.649-0.01-5.255-0.677-7.582-1.942l-7,2l-3.36-3.78l3.19-6.22c-0.782-1.904-1.187-3.942-1.19-6c0-8.837,7.163-16,16-16 S1142,66.163,1142,75z M1140,75c0.006-7.732-6.257-14.005-13.989-14.011c-7.732-0.006-14.005,6.257-14.011,13.989 c-0.001,1.957,0.407,3.893,1.2,5.682l0.19,0.42l-3,5.85l1.72,1.81l6.54-1.85l0.37,0.21c6.702,3.855,15.261,1.547,19.116-5.156 C1139.351,79.831,1139.994,77.437,1140,75z"/></g><g><path fill="#00B956" d="M1186.13,68c-3.866-6.696-12.428-8.99-19.124-5.124c-6.696,3.866-8.99,12.428-5.124,19.124 c3.866,6.696,12.428,8.99,19.124,5.124c2.128-1.229,3.896-2.996,5.124-5.124l1.73,1c-4.418,7.653-14.204,10.275-21.856,5.856 c-7.653-4.418-10.275-14.204-5.856-21.856c4.418-7.653,14.204-10.275,21.856-5.856c2.432,1.404,4.452,3.424,5.856,5.856 L1186.13,68z M1191,71h-2v3h-3v2h3v3h2v-3h3v-2h-3V71z M1172,81v-2h1v-2h-1v-3h-2v3h-3.71l2.47-7.69l-1.9-0.61l-2.71,8.44 l-0.1,0.52l0.87,1.34h5.08v2H1172z M1182.4,71.77l1.2-1.61c-2.404-1.748-5.718-1.511-7.85,0.56 c-2.507,2.168-2.783,5.958-0.615,8.465c2.168,2.507,5.958,2.783,8.465,0.615l0,0l0.4-0.3V74h-4v2h2v2.47 c-1.574,0.88-3.54,0.62-4.83-0.64c-1.566-1.558-1.572-4.091-0.013-5.657c0.004-0.004,0.009-0.009,0.013-0.013 C1178.588,70.778,1180.793,70.614,1182.4,71.77z"/><path fill="#FFF" d="M1186.13,118c-3.866-6.696-12.428-8.99-19.124-5.124c-6.696,3.866-8.99,12.428-5.124,19.124 c3.866,6.696,12.428,8.99,19.124,5.124c2.128-1.229,3.896-2.996,5.124-5.124l1.73,1c-4.418,7.653-14.204,10.275-21.856,5.857 c-7.653-4.418-10.275-14.204-5.856-21.857c4.418-7.653,14.204-10.275,21.856-5.856c2.432,1.404,4.452,3.424,5.856,5.856 L1186.13,118z M1191,121h-2v3h-3v2h3v3h2v-3h3v-2h-3V121z M1172,131v-2h1v-2h-1v-3h-2v3h-3.71l2.47-7.69l-1.9-0.61l-2.71,8.44 l-0.1,0.52l0.87,1.34h5.08v2H1172z M1182.4,121.77l1.2-1.61c-2.404-1.748-5.718-1.511-7.85,0.56 c-2.507,2.168-2.783,5.958-0.615,8.465c2.168,2.507,5.958,2.783,8.465,0.615l0,0l0.4-0.3V124h-4v2h2v2.47 c-1.574,0.88-3.54,0.62-4.83-0.64c-1.566-1.558-1.572-4.091-0.013-5.657c0.004-0.004,0.009-0.009,0.013-0.013 C1178.588,120.778,1180.793,120.614,1182.4,121.77z"/></g><g><path fill="#FFF" d="M1237,109h-30v20h6v12h30v-20h-6V109z M1235,111v4h-26v-4H1235z M1209,117h26v10h-26V117z M1241,123v16 h-26v-10h22v-6H1241z M1217,135h4v2h-4V135z M1235,135h4v2h-4V135z M1229,135h4v2h-4V135z M1223,135h4v2h-4V135z"/><path fill="#00B956" d="M1237,59h-30v20h6v12h30V71h-6V59z M1235,61v4h-26v-4H1235z M1209,67h26v10h-26V67z M1241,73v16h-26V79 h22v-6H1241z M1217,85h4v2h-4V85z M1235,85h4v2h-4V85z M1229,85h4v2h-4V85z M1223,85h4v2h-4V85z"/></g><g><g fill="#FFF"><path d="M40.834 226.14V225c-.004-8.837-7.171-15.997-16.007-15.993-4.239.002-8.304 1.686-11.303 4.683l1.41 1.41c5.467-5.468 14.331-5.468 19.799-.001 2.626 2.626 4.101 6.187 4.101 9.901v1.14l-1.18-2.71-1.82 1.14 3.24 4.43h1.53l3.23-4.43-1.82-1.14L40.834 226.14zM24.834 239c-7.732 0-14-6.268-14-14v-1.14l1.18 2.71 1.82-1.14-3.24-4.43h-1.52l-3.24 4.43 1.82 1.14 1.18-2.71V225c.004 8.837 7.171 15.997 16.007 15.993 4.239-.002 8.304-1.686 11.303-4.683l-1.41-1.41C32.114 237.535 28.549 239.011 24.834 239z"/><path d="M20.834,234h2v-3h6v-2h-6v-2h4c2.761,0,5-2.239,5-5s-2.239-5-5-5h-6v8h-2v2h2v2h-2v2h2V234z M22.834,219h4c1.657,0,3,1.343,3,3s-1.343,3-3,3h-4V219z"/></g><g fill="#00B956"><path d="M40.834 176.14V175c-.004-8.837-7.171-15.997-16.007-15.993-4.239.002-8.304 1.686-11.303 4.683l1.41 1.41c5.467-5.468 14.331-5.468 19.799-.001 2.626 2.626 4.101 6.187 4.101 9.901v1.14l-1.18-2.71-1.82 1.14 3.24 4.43h1.53l3.23-4.43-1.82-1.14L40.834 176.14zM24.834 189c-7.732 0-14-6.268-14-14v-1.14l1.18 2.71 1.82-1.14-3.24-4.43h-1.52l-3.24 4.43 1.82 1.14 1.18-2.71V175c.004 8.837 7.171 15.997 16.007 15.993 4.239-.002 8.304-1.686 11.303-4.683l-1.41-1.41C32.114 187.535 28.549 189.011 24.834 189z"/><path d="M20.834,184h2v-3h6v-2h-6v-2h4c2.761,0,5-2.239,5-5s-2.239-5-5-5h-6v8h-2v2h2v2h-2v2h2V184z M22.834,169h4c1.657,0,3,1.343,3,3s-1.343,3-3,3h-4V169z"/></g></g><g><g fill="#FFF"><path d="M83.784 227c3.314 0 6-2.686 6-6s-2.686-6-6-6c-3.314 0-6 2.686-6 6S80.47 227 83.784 227zM83.784 217c2.209 0 4 1.791 4 4s-1.791 4-4 4c-2.209 0-4-1.791-4-4S81.575 217 83.784 217zM66.714 221c3.314 0 6-2.686 6-6s-2.686-6-6-6c-3.314 0-6 2.686-6 6S63.4 221 66.714 221zM66.714 211c2.209 0 4 1.791 4 4s-1.791 4-4 4c-2.209 0-4-1.791-4-4S64.505 211 66.714 211zM58.784 225l2 16h12l2-16c-2.506-1.262-5.264-1.946-8.07-2C63.955 223.07 61.246 223.754 58.784 225zM71.024 239h-8.63l-1.46-12.78c1.811-.833 3.786-1.25 5.78-1.22 2.033-.041 4.049.376 5.9 1.22L71.024 239zM90.534 237.77L90.534 237.77l-.81-7.44-.49-.24c-1.72-.741-3.577-1.113-5.45-1.09-1.876-.032-3.736.347-5.45 1.11l-.48.25-.81 7.42 0 0-.26 2.06v.25l0 0-.1.9h14.2L90.534 237.77zM78.904 239l.81-7.31c1.305-.468 2.683-.701 4.07-.69 1.387 0 2.763.236 4.07.7l.81 7.3H78.904z"/></g><g fill="#00B956"><path d="M83.784 177c3.314 0 6-2.686 6-6s-2.686-6-6-6-6 2.686-6 6S80.47 177 83.784 177zM83.784 167c2.209 0 4 1.791 4 4s-1.791 4-4 4-4-1.791-4-4S81.575 167 83.784 167zM66.714 171c3.314 0 6-2.686 6-6s-2.686-6-6-6-6 2.686-6 6S63.4 171 66.714 171zM66.714 161c2.209 0 4 1.791 4 4s-1.791 4-4 4-4-1.791-4-4S64.505 161 66.714 161zM58.784 175l2 16h12l2-16c-2.506-1.262-5.264-1.946-8.07-2C63.955 173.07 61.246 173.754 58.784 175zM71.024 189h-8.63l-1.46-12.78c1.812-.833 3.786-1.25 5.78-1.22 2.033-.041 4.05.376 5.9 1.22L71.024 189zM90.534 187.77L90.534 187.77l-.81-7.44-.49-.24c-1.72-.741-3.577-1.113-5.45-1.09-1.876-.032-3.736.347-5.45 1.11l-.48.25-.81 7.42 0 0-.26 2.06v.25l0 0-.1.9h14.2L90.534 187.77zM78.904 189l.81-7.31c1.306-.468 2.683-.701 4.07-.69 1.387 0 2.763.236 4.07.7l.81 7.3H78.904z"/></g></g><g><path fill="#FFF" d="M131.962,215.379v-3.5c0,0-3-1.5-7-1.5s-7,1.5-7,1.5v3.5h-9v24h32v-24H131.962z M119.962,213.179 c1.1-0.3,2.9-0.8,5-0.8s3.9,0.5,5,0.8v2.2h-10V213.179z M117.962,217.379h21v5.2l-10.4,2.8h-7.2l-10.4-2.8v-5.2H117.962z M127.962,227.379v2h-6v-2H127.962z M110.962,237.379v-12.7l9,2.4v4.3h10v-4.3l9-2.4v12.7H110.962z"/><path fill="#00B956" d="M131.962,165.067v-3.5c0,0-3-1.5-7-1.5s-7,1.5-7,1.5v3.5h-9v24h32v-24H131.962z M119.962,162.867 c1.1-0.3,2.9-0.8,5-0.8s3.9,0.5,5,0.8v2.2h-10V162.867z M117.962,167.067h21v5.2l-10.4,2.8h-7.2l-10.4-2.8v-5.2H117.962z M127.962,177.067v2h-6v-2H127.962z M110.962,187.067v-12.7l9,2.4v4.3h10v-4.3l9-2.4v12.7H110.962z"/></g><g><g fill="#FFF"><path d="M213.05 232l2.5 9h18.9l2.5-9-.4-.4c-3.1-3-7.2-4.6-11.5-4.6s-8.4 1.6-11.6 4.5L213.05 232zM225.05 229c3.6 0 7 1.3 9.8 3.6l-1.8 6.4h-16l-1.8-6.4C218.05 230.3 221.45 229 225.05 229zM233.05 217c0-4.4-3.6-8-8-8-4.4 0-8 3.6-8 8s3.6 8 8 8C229.45 225 233.05 221.4 233.05 217zM219.05 217c0-3.3 2.7-6 6-6s6 2.7 6 6-2.7 6-6 6S219.05 220.3 219.05 217z"/></g><g fill="#00B956"><path d="M213.05 182l2.5 9h18.9l2.5-9-.4-.4c-3.1-3-7.2-4.6-11.5-4.6s-8.4 1.6-11.6 4.5L213.05 182zM225.05 179c3.6 0 7 1.3 9.8 3.6l-1.8 6.4h-16l-1.8-6.4C218.05 180.3 221.45 179 225.05 179zM233.05 167c0-4.4-3.6-8-8-8-4.4 0-8 3.6-8 8s3.6 8 8 8C229.45 175 233.05 171.4 233.05 167zM219.05 167c0-3.3 2.7-6 6-6s6 2.7 6 6-2.7 6-6 6S219.05 170.3 219.05 167z"/></g></g><g><g fill="#FFF"><path d="M268.117 216.495H279.026V219.222H268.117zM268.117 221.95H279.026V224.677H268.117z"/><path d="M289.935,209.677h-2.727h-24.545h-2.727v2.727h2.727v30l4.091-1.636l4.091,1.636l4.091-1.636 l4.091,1.636l4.091-1.636l4.091,1.636v-30h2.727V209.677z M284.48,238.313l-1.364-0.545l-4.091,1.636l-4.091-1.636l-4.091,1.636 l-4.091-1.636l-1.364,0.545v-25.909h19.091V238.313z"/><path d="M268.117 227.404H273.572V230.131H268.117z"/></g><g fill="#00B956"><path d="M268.117 166.495H279.026V169.222H268.117zM268.117 171.95H279.026V174.677H268.117z"/><path d="M289.935,159.677h-2.727h-24.545h-2.727v2.727h2.727v30l4.091-1.636l4.091,1.636l4.091-1.636 l4.091,1.636l4.091-1.636l4.091,1.636v-30h2.727V159.677z M284.48,188.313l-1.364-0.545l-4.091,1.636l-4.091-1.636l-4.091,1.636 l-4.091-1.636l-1.364,0.545v-25.909h19.091V188.313z"/><path d="M268.117 177.404H273.572V180.131H268.117z"/></g></g><g><path fill="#FFF" d="M430.023,223h-4v6h-2v2h2v2h-2v2h2v2h2v-2h3v-2h-3v-2h2c2.209,0,4-1.791,4-4S432.232,223,430.023,223z M430.023,229h-2v-4h2c1.105,0,2,0.895,2,2S431.128,229,430.023,229z M430.023,219.05V209h-20v32h19 c6.075-0.026,10.979-4.971,10.953-11.046C439.953,224.302,435.649,219.588,430.023,219.05z M412.023,239v-28h16v8.05 c-6.049,0.567-10.492,5.931-9.925,11.979c0.301,3.206,1.991,6.119,4.625,7.971H412.023z M429.023,239c-4.971,0-9-4.029-9-9 s4.029-9,9-9c4.97,0,9,4.029,9,9S433.994,239,429.023,239z M424.023,215h-8v-2h8V215z"/><path fill="#00B956" d="M430.023,173h-4v6h-2v2h2v2h-2v2h2v2h2v-2h3v-2h-3v-2h2c2.209,0,4-1.791,4-4S432.232,173,430.023,173z M430.023,179h-2v-4h2c1.105,0,2,0.895,2,2S431.128,179,430.023,179z M430.023,169.05V159h-20v32h19 c6.075-0.026,10.979-4.971,10.953-11.046C439.953,174.302,435.649,169.588,430.023,169.05z M412.023,189v-28h16v8.05 c-6.049,0.567-10.492,5.931-9.925,11.979c0.301,3.206,1.991,6.119,4.625,7.971H412.023z M429.023,189c-4.971,0-9-4.029-9-9 s4.029-9,9-9c4.97,0,9,4.029,9,9S433.994,189,429.023,189z M424.023,165h-8v-2h8V165z"/></g><g><g fill="#FFF"><path d="M525.5,209c-8.8,0-16,7.2-16,16s7.2,16,16,16s16-7.2,16-16S534.3,209,525.5,209z M525.5,239 c-7.7,0-14-6.3-14-14s6.3-14,14-14s14,6.3,14,14S533.2,239,525.5,239z"/><path d="M519.5,219.3v11.5l1.2,0.9l11.8-5.2v-3l-11.8-5.1L519.5,219.3z M521.5,220.9l9,3.9v0.4l-9,3.9V220.9z"/></g><g fill="#00B956"><path d="M525.5,159c-8.8,0-16,7.2-16,16s7.2,16,16,16s16-7.2,16-16S534.3,159,525.5,159z M525.5,189 c-7.7,0-14-6.3-14-14s6.3-14,14-14s14,6.3,14,14S533.2,189,525.5,189z"/><path d="M519.5,169.3v11.5l1.2,0.9l11.8-5.2v-3l-11.8-5.1L519.5,169.3z M521.5,170.9l9,3.9v0.4l-9,3.9V170.9z"/></g></g><g><path fill="#FFF" d="M635,217c-4.87,0-8.44,4-10,6.19c-1.56-2.19-5.13-6.19-10-6.19c-4.418,0-8,3.582-8,8s3.582,8,8,8 c4.87,0,8.44-4,10-6.19c1.56,2.19,5.13,6.19,10,6.19c4.418,0,8-3.582,8-8S639.418,217,635,217z M615,231c-3.314,0-6-2.686-6-6 s2.686-6,6-6c4.46,0,7.81,4.48,8.82,6C622.81,226.52,619.47,231,615,231z M635,231c-4.46,0-7.81-4.48-8.82-6 c1-1.52,4.35-6,8.82-6c3.314,0,6,2.686,6,6S638.314,231,635,231z"/><path fill="#00B956" d="M635,167c-4.87,0-8.44,4-10,6.19c-1.56-2.19-5.13-6.19-10-6.19c-4.418,0-8,3.582-8,8s3.582,8,8,8 c4.87,0,8.44-4,10-6.19c1.56,2.19,5.13,6.19,10,6.19c4.418,0,8-3.582,8-8S639.418,167,635,167z M615,181c-3.314,0-6-2.686-6-6 s2.686-6,6-6c4.46,0,7.81,4.48,8.82,6C622.81,176.52,619.47,181,615,181z M635,181c-4.46,0-7.81-4.48-8.82-6 c1-1.52,4.35-6,8.82-6c3.314,0,6,2.686,6,6S638.314,181,635,181z"/></g><g><path fill="#FFF" d="M731.39,210l-1.75-1l-2.23,4h-4.82l-2.23-4l-1.75,1l1.69,3H709v24h32v-24h-11.3L731.39,210z M739,235 h-28v-20h28V235z M720.18,218.45l-1.18,0.92v11.36l1.18,0.92l11.82-5.14v-2.92L720.18,218.45z M730,225.2l-9,3.91V221l9,3.91 V225.2z"/><path fill="#00B956" d="M731.39,160l-1.75-1l-2.23,4h-4.82l-2.23-4l-1.75,1l1.69,3H709v24h32v-24h-11.3L731.39,160z M739,185 h-28v-20h28V185z M720.18,168.45l-1.18,0.92v11.36l1.18,0.92l11.82-5.14v-2.92L720.18,168.45z M730,175.2l-9,3.91V171l9,3.91 V175.2z"/></g><g><path fill="#FFF" d="M841,225c0-8.837-7.163-16-16-16s-16,7.163-16,16s7.163,16,16,16h16v-2h-8.27 C837.829,236.186,840.997,230.824,841,225z M825,239c-7.732,0-14-6.268-14-14s6.268-14,14-14s14,6.268,14,14 S832.732,239,825,239z M819,225c0,1.105-0.895,2-2,2c-1.105,0-2-0.895-2-2s0.895-2,2-2C818.105,223,819,223.895,819,225z M835,225c0,1.105-0.895,2-2,2c-1.105,0-2-0.895-2-2s0.895-2,2-2C834.105,223,835,223.895,835,225z M827,233 c0,1.105-0.895,2-2,2c-1.105,0-2-0.895-2-2s0.895-2,2-2C826.105,231,827,231.895,827,233z M827,217c0,1.105-0.895,2-2,2 c-1.105,0-2-0.895-2-2s0.895-2,2-2C826.105,215,827,215.895,827,217z"/><path fill="#00B956" d="M841,175c0-8.837-7.163-16-16-16s-16,7.163-16,16s7.163,16,16,16h16v-2h-8.27 C837.829,186.186,840.997,180.824,841,175z M825,189c-7.732,0-14-6.268-14-14s6.268-14,14-14s14,6.268,14,14 S832.732,189,825,189z M819,175c0,1.105-0.895,2-2,2c-1.105,0-2-0.895-2-2s0.895-2,2-2C818.105,173,819,173.895,819,175z M835,175c0,1.105-0.895,2-2,2c-1.105,0-2-0.895-2-2s0.895-2,2-2C834.105,173,835,173.895,835,175z M827,183 c0,1.105-0.895,2-2,2c-1.105,0-2-0.895-2-2s0.895-2,2-2C826.105,181,827,181.895,827,183z M827,167c0,1.105-0.895,2-2,2 c-1.105,0-2-0.895-2-2s0.895-2,2-2C826.105,165,827,165.895,827,167z"/></g><g><path fill="#00B956" d="M186.6,175.36c0.719-2.566-0.371-5.296-2.66-6.66V168c0-4.971-4.029-9-9-9c-4.971,0-9,4.029-9,9v0.7 c-2.217,1.422-3.247,4.123-2.54,6.66l-4.4,4.4v3.66l2.42,2.42l6.22-6.24c0.984,0.254,2.016,0.254,3,0 c0.51,1.083,1.332,1.988,2.36,2.6v8.8h3.42l2.58-2.58v-6.24c0.986-0.584,1.784-1.437,2.3-2.46 c0.357-0.015,0.711-0.062,1.06-0.14l6.22,6.22l2.42-2.38v-3.66L186.6,175.36z M175,161c3.835,0,6.956,3.085,7,6.92 c-2.614-0.562-5.279,0.701-6.5,3.08c-0.337,0.025-0.672,0.079-1,0.16c-0.27-0.606-0.642-1.161-1.1-1.64 c-1.422-1.398-3.446-1.997-5.4-1.6C168.044,164.085,171.165,161,175,161z M170,177c-0.012,0.22-0.012,0.44,0,0.66 c-0.782,0.201-1.607,0.152-2.36-0.14l-0.6-0.24l-5.62,5.72l-0.42-0.42v-2l4.72-4.7l-0.24-0.6 c-0.771-2.07,0.283-4.374,2.353-5.144c1.44-0.536,3.059-0.2,4.167,0.864c0.286,0.293,0.522,0.631,0.7,1 C171.018,173.108,170.004,174.986,170,177z M177.6,180.66L177,181v6.66l-1.42,1.42H175V181l-0.6-0.26 c-2.025-0.884-2.949-3.242-2.066-5.266c0.472-1.08,1.396-1.898,2.526-2.234c-0.314,2.818,1.426,5.458,4.14,6.28 C178.626,180.002,178.147,180.392,177.6,180.66z M189,182.66l-0.42,0.42l-5.72-5.7l-0.6,0.24 c-2.056,0.808-4.378-0.204-5.186-2.261c-0.808-2.056,0.205-4.378,2.261-5.185c0.753-0.296,1.577-0.356,2.365-0.174 c-0.305,1.127-0.89,2.159-1.7,3c-0.428,0.349-0.492,0.979-0.144,1.407c0.349,0.428,0.979,0.492,1.407,0.143 c0.016-0.013,0.031-0.027,0.047-0.04l0.11-0.11c0.917-0.982,1.6-2.158,2-3.44l0.14,0.12c1.122,1.122,1.476,2.801,0.9,4.28 l-0.24,0.6l4.78,4.62V182.66z"/><path fill="#FFF" d="M186.6,225.36c0.719-2.566-0.371-5.296-2.66-6.66V218c0-4.971-4.029-9-9-9c-4.971,0-9,4.029-9,9v0.7 c-2.217,1.422-3.247,4.123-2.54,6.66l-4.4,4.4v3.66l2.42,2.42l6.22-6.24c0.984,0.254,2.016,0.254,3,0 c0.51,1.083,1.332,1.988,2.36,2.6v8.8h3.42l2.58-2.58v-6.24c0.986-0.584,1.784-1.437,2.3-2.46 c0.357-0.015,0.711-0.062,1.06-0.14l6.22,6.22l2.42-2.38v-3.66L186.6,225.36z M175,211c3.835,0,6.956,3.085,7,6.92 c-2.614-0.562-5.279,0.701-6.5,3.08c-0.337,0.025-0.672,0.079-1,0.16c-0.27-0.606-0.642-1.161-1.1-1.64 c-1.422-1.398-3.446-1.997-5.4-1.6C168.044,214.085,171.165,211,175,211z M170,227c-0.012,0.22-0.012,0.44,0,0.66 c-0.782,0.201-1.607,0.152-2.36-0.14l-0.6-0.24l-5.62,5.72l-0.42-0.42v-2l4.72-4.7l-0.24-0.6 c-0.771-2.07,0.283-4.374,2.353-5.144c1.44-0.536,3.059-0.2,4.167,0.864c0.286,0.293,0.522,0.631,0.7,1 C171.018,223.108,170.004,224.986,170,227z M177.6,230.66L177,231v6.66l-1.42,1.42H175V231l-0.6-0.26 c-2.025-0.884-2.949-3.242-2.066-5.266c0.472-1.08,1.396-1.898,2.526-2.234c-0.314,2.818,1.426,5.458,4.14,6.28 C178.626,230.002,178.147,230.392,177.6,230.66z M189,232.66l-0.42,0.42l-5.72-5.7l-0.6,0.24 c-2.056,0.808-4.378-0.204-5.186-2.261c-0.808-2.056,0.205-4.378,2.261-5.185c0.753-0.296,1.577-0.356,2.365-0.174 c-0.305,1.127-0.89,2.159-1.7,3c-0.428,0.349-0.492,0.979-0.144,1.407c0.349,0.428,0.979,0.492,1.407,0.143 c0.016-0.013,0.031-0.027,0.047-0.04l0.11-0.11c0.917-0.982,1.6-2.158,2-3.44l0.14,0.12c1.122,1.122,1.476,2.801,0.9,4.28 l-0.24,0.6l4.78,4.62V232.66z"/></g><g><g><path fill="#FFF" d="M359.113,222.441l6.9,6.9l-1.9,10.4l2.2,1.3l8.7-5.8l8.7,5.8l2.2-1.3l-1.9-10.3 l6.9-6.9v-2.3l-10.3-1.1l-4.3-10.1h-2.3l-4.5,10.1l-10.4,1V222.441z M370.813,220.941l4.3-9.6l4.3,9.6l9.4,1l-6.8,6.8 l1.8,9.9l-8.7-5.8l-8.7,5.8l1.8-9.9l-6.8-6.8L370.813,220.941z"/><defs><filter id="i" width="40" height="40" x="355.113" y="205.041" filterUnits="userSpaceOnUse"><feColorMatrix values="1 0 0 0 0 0 1 0 0 0 0 0 1 0 0 0 0 0 1 0"/></filter></defs><mask id="j" width="40" height="40" x="355.113" y="205.041" maskUnits="userSpaceOnUse"><path fill="#FFF" d="M359.113,222.441l6.9,6.9l-1.9,10.4l2.2,1.3l8.7-5.8l8.7,5.8l2.2-1.3l-1.9-10.3 l6.9-6.9v-2.3l-10.3-1.1l-4.3-10.1h-2.3l-4.5,10.1l-10.4,1V222.441z M370.813,220.941l4.3-9.6l4.3,9.6l9.4,1l-6.8,6.8 l1.8,9.9l-8.7-5.8l-8.7,5.8l1.8-9.9l-6.8-6.8L370.813,220.941z" filter="url(#i)"/></mask><g mask="url(#j)"><path fill="#FFF" d="M359.113 209.041H399.113V249.041H359.113z" transform="translate(-4 -4)"/></g></g><g><path fill="#00B956" d="M359.113,172.441l6.9,6.9l-1.9,10.4l2.2,1.3l8.7-5.8l8.7,5.8l2.2-1.3l-1.9-10.3 l6.9-6.9v-2.3l-10.3-1.1l-4.3-10.1h-2.3l-4.5,10.1l-10.4,1V172.441z M370.813,170.941l4.3-9.6l4.3,9.6l9.4,1l-6.8,6.8 l1.8,9.9l-8.7-5.8l-8.7,5.8l1.8-9.9l-6.8-6.8L370.813,170.941z"/><defs><filter id="k" width="41" height="41" x="354.613" y="154.541" filterUnits="userSpaceOnUse"><feColorMatrix values="1 0 0 0 0 0 1 0 0 0 0 0 1 0 0 0 0 0 1 0"/></filter></defs><mask id="l" width="41" height="41" x="354.613" y="154.541" maskUnits="userSpaceOnUse"><path fill="#FFF" d="M359.113,172.441l6.9,6.9l-1.9,10.4l2.2,1.3l8.7-5.8l8.7,5.8l2.2-1.3l-1.9-10.3 l6.9-6.9v-2.3l-10.3-1.1l-4.3-10.1h-2.3l-4.5,10.1l-10.4,1V172.441z M370.813,170.941l4.3-9.6l4.3,9.6l9.4,1l-6.8,6.8 l1.8,9.9l-8.7-5.8l-8.7,5.8l1.8-9.9l-6.8-6.8L370.813,170.941z" filter="url(#k)"/></mask><g mask="url(#l)"><path fill="#00B956" stroke="#00B956" stroke-miterlimit="10" d="M359.113 159.041H399.113V199.041H359.113z" transform="translate(-4 -4)"/></g></g></g><g><path fill="#B3B2B2" d="M996.271,173.972l-20.379-20.278l-3.514,3.378L988.506,173H953v5h35.514l-16.137,16.149l3.514,3.545 l20.379-20.248c0.465-0.463,0.73-1.079,0.73-1.736C997,175.058,996.736,174.435,996.271,173.972z"/><path fill="#FFF" d="M996.271,223.972l-20.379-20.278l-3.514,3.378L988.506,223H953v5h35.514l-16.137,16.149l3.514,3.545 l20.379-20.248c0.465-0.463,0.73-1.079,0.73-1.736C997,225.058,996.736,224.435,996.271,223.972z"/><path fill="#303030" d="M855.639,159.588c2.773,0,5.067-2.08,6.187-3.307l0.267-0.32l0.267,0.32 c1.12,1.227,3.413,3.307,6.187,3.307c2.4,0,4.32-1.867,4.32-4.16s-1.92-4.16-4.32-4.16c-2.773,0-5.067,2.08-6.187,3.307 l-0.267,0.32l-0.267-0.32c-1.12-1.28-3.413-3.36-6.187-3.36c-2.4,0-4.32,1.867-4.32,4.16 C851.319,157.722,853.239,159.588,855.639,159.588z M862.733,155.162c0.853-0.96,3.147-3.253,5.813-3.253 c1.973,0,3.573,1.547,3.573,3.52c0,1.973-1.6,3.52-3.573,3.52c-2.667,0-4.907-2.293-5.813-3.253l-0.213-0.213L862.733,155.162z M855.639,151.908c2.667,0,4.907,2.293,5.813,3.253l0.213,0.213l-0.213,0.213c-0.32,0.427-0.853,0.96-1.493,1.493 c-1.867,1.493-3.36,1.813-4.32,1.813c-1.973,0-3.573-1.547-3.573-3.52S853.666,151.908,855.639,151.908z"/><g fill="none" stroke="#FFF"><path d="M897.56,151.498c-8.1,0-14.667,6.566-14.667,14.667v7.333"/><path d="M881.427,168.218l1.467,5.28l1.467-5.28"/></g><g fill="#008BFB"><path d="M852.018,184.948v11.338c-0.004,0.54,0.206,1.051,0.588,1.436c0.381,0.385,0.89,0.597,1.432,0.597h15.954 c1.116,0,2.027-0.911,2.027-2.028v-11.344c0-0.538-0.211-1.047-0.597-1.43c-0.383-0.385-0.89-0.597-1.43-0.597h-5.604v1.522h5.604 c0.134,0,0.26,0.053,0.358,0.149c0.097,0.097,0.148,0.222,0.148,0.356v11.344c0,0.277-0.23,0.507-0.505,0.507h-15.954 c-0.133,0-0.257-0.053-0.352-0.148c-0.096-0.096-0.107-0.306-0.105-0.437v-11.265c0-0.275,0.232-0.507,0.507-0.507h5.604v-1.522 h-5.604C852.969,182.919,852.018,183.83,852.018,184.948"/><path d="M858.245,189.43l3.249,3.25c0.136,0.136,0.324,0.215,0.518,0.214c0.195,0.002,0.381-0.077,0.519-0.214 l3.249-3.25l-1.036-1.035l-2,1.998l0.001-11.167l-1.464,0.009l-0.002,0.044c0,0-0.001,0.021-0.002,0.032l0.002,11.079 l-1.998-1.997L858.245,189.43z"/></g><g fill="#FFF"><path d="M913.12 17.81c-.892 0-1.609.72-1.609 1.611 0 .891.717 1.612 1.609 1.612.89 0 1.613-.721 1.613-1.612C914.732 18.53 914.01 17.81 913.12 17.81M911.809 1H914.355V15.397H911.809z"/></g><g fill="none" stroke="#00B956"><path stroke-linejoin="round" stroke-width="2" d="M945.329,6.188l-8.814,12.233l-1.308-6.39 l-4.88-4.327L945.329,6.188z"/><path stroke-linecap="square" d="M935.164,12.031l9.023-5.156"/></g><path fill="#00B956" d="M875.936,208.999c-8.837,0-16,7.164-16,16c0.003,2.058,0.408,4.096,1.19,6l-3.19,6.22l3.38,3.78l7-2 c7.732,4.278,17.468,1.477,21.746-6.255c4.277-7.732,1.477-17.468-6.255-21.746C881.398,209.666,878.688,208.977,875.936,208.999 z M875.936,238.999c-2.46-0.007-4.874-0.663-7-1.9l-0.37-0.21l-6.55,1.85l-1.72-1.81l3-5.85l-0.19-0.42 c-3.126-7.072,0.073-15.339,7.145-18.465c7.072-3.126,15.339,0.073,18.465,7.145c3.126,7.072-0.073,15.339-7.145,18.465 C879.796,238.589,877.877,238.995,875.936,238.999z M871.936,224.999c0,1.105-0.895,2-2,2s-2-0.895-2-2c0-1.105,0.895-2,2-2 S871.936,223.894,871.936,224.999z M877.936,224.999c0,1.105-0.895,2-2,2s-2-0.895-2-2c0-1.105,0.895-2,2-2 S877.936,223.894,877.936,224.999z M883.936,224.999c0,1.105-0.895,2-2,2s-2-0.895-2-2c0-1.105,0.895-2,2-2 S883.936,223.894,883.936,224.999z"/><path fill="#E96980" d="M896.479,186.22c-2.088-3.577-6.681-4.785-10.258-2.697s-4.785,6.681-2.697,10.258 c2.088,3.577,6.681,4.785,10.258,2.697c1.411-0.824,2.514-2.085,3.143-3.593l-1.539-0.641c-1.242,2.974-4.66,4.377-7.633,3.135 c-2.17-0.907-3.584-3.027-3.586-5.379c-0.001-3.222,2.61-5.834,5.832-5.835c2.076-0.001,3.995,1.102,5.041,2.895L896.479,186.22z"/><path fill="none" stroke="#E96980" stroke-linecap="square" stroke-width="2" d="M896.3,183.182v3.536h-3.535"/><g transform="translate(2 2)"><path fill="#008BFF" d="M1014.4,7.9h1.1v9.9h-14.3V3.5h9.9v1.1h-8.8v12.1h12.1V7.9z M1008.735,9.488l7.899-7.899 l-2.55,0.469l-0.198-1.083l4.226-0.774l0.688,0.688l-0.774,4.228l-1.082-0.199l0.468-2.55l-7.898,7.899l-0.779-0.778H1008.735z"/><defs><filter id="m" width="22" height="22" x="999" y="-2" filterUnits="userSpaceOnUse"><feColorMatrix values="1 0 0 0 0 0 1 0 0 0 0 0 1 0 0 0 0 0 1 0"/></filter></defs><mask id="n" width="22" height="22" x="999" y="-2" maskUnits="userSpaceOnUse"><path fill="#FFF" d="M1014.4,7.9h1.1v9.9h-14.3V3.5h9.9v1.1h-8.8v12.1h12.1V7.9z M1008.735,9.488l7.899-7.899 l-2.55,0.469l-0.198-1.083l4.226-0.774l0.688,0.688l-0.774,4.228l-1.082-0.199l0.468-2.55l-7.898,7.899l-0.779-0.778H1008.735z" filter="url(#m)"/></mask><g mask="url(#n)"><path fill="#008BFB" d="M999-2h22v22h-22V-2z"/></g></g><path d="M797.316,7.158l-2.697,7.333c-0.166,0.442-0.325,0.888-0.47,1.321c-0.068,0.217-0.134,0.425-0.2,0.618h-0.05 c-0.067-0.214-0.136-0.427-0.207-0.64c-0.137-0.423-0.285-0.843-0.445-1.258l-2.883-7.374h-1.542l4.124,10.607 c0.11,0.256,0.127,0.37,0.127,0.42c0,0.012-0.008,0.098-0.13,0.422c-0.224,0.576-0.517,1.122-0.873,1.627 c-0.33,0.451-0.633,0.817-0.905,1.084c-0.31,0.315-0.635,0.571-0.963,0.768c-0.337,0.196-0.643,0.356-0.915,0.48l-0.156,0.07 l0.502,1.221l0.158-0.06c0.133-0.051,0.38-0.16,0.753-0.342c0.373-0.188,0.791-0.481,1.237-0.876 c0.38-0.334,0.729-0.731,1.04-1.177c0.305-0.435,0.61-0.948,0.907-1.518c0.297-0.569,0.594-1.216,0.881-1.927 c0.287-0.712,0.6-1.507,0.919-2.365l3.33-8.434L797.316,7.158z M786.04,14.945c0,0.154-0.039,0.367-0.109,0.621 c-0.092,0.274-0.223,0.534-0.387,0.772c-0.168,0.248-0.38,0.473-0.63,0.669c-0.265,0.208-0.563,0.369-0.883,0.475 c-0.374,0.123-0.766,0.182-1.16,0.175c-0.26,0-0.517-0.04-0.761-0.127c-0.238-0.083-0.456-0.214-0.64-0.385 c-0.193-0.183-0.347-0.405-0.45-0.65c-0.114-0.26-0.17-0.587-0.17-0.968c0-0.616,0.165-1.12,0.492-1.487 c0.352-0.392,0.794-0.692,1.288-0.874c0.56-0.209,1.146-0.344,1.741-0.399c0.555-0.05,1.113-0.073,1.67-0.068v2.246H786.04z M787.508,17.2c-0.015-0.45-0.023-0.897-0.023-1.347v-4.4c0-0.52-0.053-1.053-0.157-1.58c-0.098-0.526-0.302-1.027-0.598-1.472 c-0.311-0.456-0.73-0.829-1.22-1.085c-0.513-0.276-1.182-0.416-1.987-0.416c-0.576-0.002-1.149,0.074-1.704,0.226 c-0.57,0.163-1.109,0.42-1.595,0.76l-0.118,0.08l0.487,1.142l0.178-0.117c0.386-0.259,0.808-0.459,1.253-0.594 c0.449-0.141,0.916-0.213,1.386-0.215c0.602,0,1.082,0.11,1.424,0.324c0.348,0.221,0.61,0.487,0.782,0.806 c0.176,0.324,0.292,0.668,0.342,1.03c0.055,0.371,0.082,0.705,0.082,0.995v0.125c-2.142-0.01-3.817,0.35-4.927,1.063 c-1.167,0.752-1.76,1.823-1.76,3.176c0,0.39,0.071,0.784,0.21,1.175c0.14,0.395,0.352,0.746,0.63,1.047 c0.28,0.301,0.64,0.551,1.072,0.74c0.432,0.185,0.939,0.279,1.504,0.279c0.447,0,0.867-0.061,1.248-0.172 c0.38-0.11,0.722-0.26,1.02-0.448c0.298-0.188,0.564-0.393,0.788-0.618c0.102-0.101,0.19-0.203,0.276-0.306h0.057l0.133,1.286 h1.391l-0.037-0.204C787.568,18.057,787.522,17.629,787.508,17.2z M776.322,9.921c-0.742,0.622-1.792,0.94-3.125,0.94 c-0.365,0-0.713-0.017-1.03-0.048c-0.245-0.022-0.488-0.062-0.727-0.12V3.958c0.192-0.031,0.428-0.066,0.706-0.096 c0.351-0.037,0.776-0.058,1.26-0.058c0.602,0,1.157,0.072,1.652,0.217c0.488,0.14,0.917,0.348,1.27,0.621 c0.352,0.274,0.63,0.63,0.81,1.038c0.19,0.428,0.285,0.936,0.285,1.513C777.423,8.391,777.051,9.308,776.322,9.921L776.322,9.921z M777.65,3.876c-0.452-0.436-1.032-0.774-1.73-1.007c-0.69-0.23-1.52-0.346-2.467-0.346c-0.65,0-1.262,0.032-1.812,0.096 c-0.543,0.06-1.047,0.13-1.5,0.207l-0.145,0.028v15.83h1.444v-6.67c0.549,0.089,1.104,0.132,1.66,0.128 c0.816,0,1.583-0.106,2.276-0.309c0.667-0.191,1.289-0.516,1.826-0.956c0.519-0.431,0.936-0.972,1.22-1.583 c0.297-0.627,0.447-1.364,0.447-2.193c0-0.688-0.11-1.304-0.32-1.837c-0.205-0.518-0.511-0.99-0.9-1.388L777.65,3.876z M763.227,10.482c-0.02-2.247,1.837-3.334,1.923-3.385c-1.047-1.526-2.672-1.737-3.25-1.761c-1.384-0.139-2.703,0.815-3.405,0.815 c-0.702,0-1.783-0.793-2.934-0.768c-1.509,0.021-2.898,0.876-3.678,2.226c-1.564,2.729-0.395,6.755,1.131,8.96 c0.747,1.077,1.636,2.29,2.807,2.25c1.128-0.047,1.55-0.73,2.912-0.73c1.359-0.002,1.744,0.728,2.93,0.704 c1.212-0.027,1.982-1.1,2.725-2.185c0.854-1.251,1.206-2.467,1.225-2.525c-0.023-0.018-2.359-0.907-2.386-3.6V10.482z M760.653,3.876c0.62-0.75,1.038-1.796,0.924-2.838c-0.895,0.04-1.98,0.6-2.617,1.349c-0.576,0.662-1.077,1.727-0.94,2.752 C759.017,5.215,760.033,4.629,760.653,3.876z"/><path fill="#00B956" d="M1044.929,49.5h-1.892c-0.557,0-1.217-0.279-1.613-0.675l-12.804-12.804 c-0.396-0.396-0.675-1.056-0.675-1.613v-1.892c0-0.557,0.279-1.217,0.66-1.613l2.992-2.977c0.279-0.279,0.645-0.425,1.041-0.425 c0.396,0,0.763,0.147,1.041,0.425l3.74,3.74c0.572,0.572,0.572,1.511,0,2.083l-2.523,2.508l6.277,6.277l2.508-2.508 c0.279-0.279,0.645-0.425,1.041-0.425c0.396,0,0.763,0.147,1.041,0.425l3.74,3.74c0.572,0.572,0.572,1.511,0,2.083l-2.977,2.977 C1046.146,49.221,1045.486,49.5,1044.929,49.5"/><path fill="#303030" d="M1048,7.756h-18.55l3.644,3.644l-0.994,0.994l-5.3-5.3l5.3-5.3l0.994,0.994l-3.644,3.644H1048V7.756z"/><path d="M1017.316,38.882c-2.623,0-4.546,2.154-5.386,3.334c-0.84-1.18-2.763-3.334-5.386-3.334c-2.38,0-4.309,1.929-4.309,4.309 s1.929,4.309,4.309,4.309c2.623,0,4.546-2.154,5.386-3.334c0.84,1.18,2.763,3.334,5.386,3.334c2.38,0,4.309-1.929,4.309-4.309 S1019.696,38.882,1017.316,38.882z M1006.544,46.423c-1.785,0-3.232-1.447-3.232-3.232s1.447-3.232,3.232-3.232 c2.402,0,4.206,2.413,4.75,3.232C1010.751,44.01,1008.952,46.423,1006.544,46.423z M1017.316,46.423 c-2.402,0-4.206-2.413-4.75-3.232c0.539-0.819,2.343-3.232,4.75-3.232c1.785,0,3.232,1.447,3.232,3.232 S1019.101,46.423,1017.316,46.423z"/><path fill="#9A9A99" d="M1086,165c0-3.3-2.7-6-6-6c-2.1,0-3.9,1.1-5,2.7c-1.1-1.6-2.9-2.7-5-2.7c-3.3,0-6,2.7-6,6 c0,1.5,0.6,2.9,1.6,4h-4.6v10h2v12h24v-12h2v-10h-4.6C1085.4,167.9,1086,166.5,1086,165z M1080,161c2.2,0,4,1.8,4,4s-1.8,4-4,4 h-4v-4C1076,162.8,1077.8,161,1080,161z M1066,165c0-2.2,1.8-4,4-4s4,1.8,4,4v4h-4C1067.8,169,1066,167.2,1066,165z M1065,179h9 v10h-9V179z M1085,189h-9v-10h9V189z M1087,177h-24v-6h7h4h2h4h7V177z"/><g fill="#00B956"><path d="M17.533,18.548c0-1.547,1.235-2.785,2.778-2.785c1.545,0,2.778,1.238,2.778,2.785 c0,1.548-1.234,2.785-2.778,2.785C18.768,21.333,17.533,20.096,17.533,18.548 M24.635,24.943c0.103,0,0.514,0.103,0.514,0V2.149 c0,0-0.411,0-0.617,0c-12.555,0.31-22.64,10.52-22.64,23.103c0,10.726,7.409,19.803,17.392,22.382 c0.206,0,0.309,0.103,0.515,0.103V27.006c0-1.032,0.822-2.063,1.955-2.063H24.635z"/><path d="M43.363,34.328c0,1.548-1.235,2.785-2.778,2.785c-1.543,0-2.779-1.237-2.779-2.785 c0-1.546,1.236-2.784,2.779-2.784C42.128,31.544,43.363,32.782,43.363,34.328 M33.792,37.113c-1.543,0-2.778-1.237-2.778-2.785 c0-1.546,1.234-2.784,2.778-2.784c1.545,0,2.779,1.238,2.779,2.784C36.572,35.876,35.337,37.113,33.792,37.113 M27.105,37.113 c-1.545,0-2.78-1.237-2.78-2.785c0-1.546,1.235-2.784,2.78-2.784c1.542,0,2.778,1.238,2.778,2.784 C29.883,35.876,28.647,37.113,27.105,37.113 M28.339,2.046c-0.206,0-0.309,0-0.309-0.103v23.825c0,1.031-1.132,2.062-2.265,2.062 h-2.984c-0.104,0-0.617-0.104-0.617,0.103V47.84c0,0,0.514,0,0.72,0c0.618,0,1.235,0.103,1.853,0.103 c12.658,0,23.154-10.315,23.154-23.103C47.891,13.185,39.453,3.593,28.339,2.046"/></g><g fill="#9A9A99"><path d="M836.533 130.733c-3.067-2.8-6.933-4.4-11.333-4.4-4.4 0-8.533 1.6-11.467 4.4l-.667.533L815.6 141h18.8l2.533-9.733L836.533 130.733zM832.4 138.333h-14.667l-1.6-6.267c2.4-2 5.6-3.067 9.067-3.067s6.533 1.067 8.933 3.067L832.4 138.333zM825.2 123.667c4 0 7.333-3.333 7.333-7.333S829.2 109 825.2 109s-7.333 3.333-7.333 7.333S821.067 123.667 825.2 123.667zM825.2 111.667c2.533 0 4.667 2.133 4.667 4.667S827.733 121 825.2 121s-4.667-2.133-4.667-4.667S822.533 111.667 825.2 111.667z"/></g><g fill="#00B956"><path d="M86.367 30.733c-3.067-2.8-6.933-4.4-11.333-4.4-4.4 0-8.533 1.6-11.467 4.4L62.9 31.267 65.434 41h18.8l2.533-9.733L86.367 30.733zM82.234 38.333H67.567l-1.6-6.267c2.4-2 5.6-3.067 9.067-3.067s6.533 1.067 8.933 3.067L82.234 38.333zM75.034 23.667c4 0 7.333-3.333 7.333-7.333S79.034 9 75.034 9 67.7 12.333 67.7 16.333 70.9 23.667 75.034 23.667zM75.034 11.667c2.533 0 4.667 2.133 4.667 4.667S77.567 21 75.034 21s-4.667-2.133-4.667-4.667S72.367 11.667 75.034 11.667z"/></g><path fill="#00B956" d="M1225 37.134L1202 18.708 1207.391 12.661 1225 27.201 1242.609 12.661 1248 18.708z"/><path fill="#FFF" d="M1074.894 213.661L1098.053 231.886 1092.716 237.98 1074.98 223.595 1057.498 238.287 1052.055 232.286z"/><path fill="#B3B2B2" d="M1025 238.135L1002 219.709 1007.391 213.661 1025 228.201 1042.609 213.661 1048 219.709z"/><path fill="#00B956" d="M1171.34 47.898L1168.273 45.661 1184.55 25.252 1168.273 4.143 1171.34 1.898 1189.5 25.252z"/><path fill="none" stroke="#9A9A99" stroke-miterlimit="10" stroke-width="4" d="M1146.535 15.468L1124.617 32.522 1103.181 15.468"/><path fill="#008BFB" d="M1068.817 47.898L1062.766 42.518 1077.291 24.903 1062.766 6.473 1068.817 1.898 1087.239 24.903z"/><path fill="#303030" d="M718.887,47.898l-6.037-5.367l14.487-17.582L712.851,6.56L718.887,2l18.378,22.949L718.887,47.898z"/><path fill="none" d="M702.051,2h45.898v45.898h-45.898V2z"/><path fill="none" stroke="#00B956" stroke-miterlimit="10" stroke-width="1.969" d="M248 12.613L219.04 41.566 202 24.513"/><path fill="#00B956" d="M297.368,43.324c-0.847,1.567-2.353,2.35-4.5,2.35h-35.815c-2.152,0-3.654-0.783-4.501-2.35 c-0.913-1.373-0.813-3.031,0.291-4.994L270.75,7.608c1.043-1.89,2.449-2.835,4.21-2.835c1.759,0,3.163,0.945,4.208,2.835 l17.905,30.721C298.115,40.223,298.21,41.888,297.368,43.324 M293.943,40.096l-17.81-30.626c-0.391-0.719-0.782-1.08-1.174-1.08 c-0.388,0-0.785,0.361-1.171,1.08l-17.809,30.626c-0.458,0.714-0.552,1.207-0.293,1.467c0.194,0.326,0.649,0.485,1.368,0.485 h35.815c0.719,0,1.172-0.159,1.366-0.485C294.495,41.302,294.397,40.81,293.943,40.096 M273.296,19.643h3.715l-0.39,12.524h-2.833 L273.296,19.643z M276.474,35.25c-0.355-0.355-0.795-0.536-1.318-0.536c-0.522,0-0.963,0.18-1.321,0.536 c-0.359,0.357-0.538,0.802-0.538,1.323c0,0.524,0.179,0.961,0.538,1.323c0.358,0.354,0.799,0.534,1.321,0.534 c1.239,0,1.856-0.617,1.856-1.857C277.012,36.052,276.831,35.606,276.474,35.25"/><path fill="#F62434" d="M697.458,43.547c-0.847,1.567-2.353,2.35-4.5,2.35h-35.815c-2.152,0-3.654-0.783-4.501-2.35 c-0.913-1.373-0.813-3.031,0.291-4.994l17.906-30.721c1.044-1.89,2.449-2.835,4.21-2.835c1.759,0,3.164,0.945,4.208,2.835 l17.905,30.721C698.206,40.447,698.301,42.112,697.458,43.547 M694.034,40.319l-17.81-30.626c-0.391-0.719-0.782-1.08-1.174-1.08 c-0.388,0-0.785,0.361-1.171,1.08L656.07,40.319c-0.458,0.714-0.552,1.206-0.293,1.467c0.194,0.326,0.649,0.485,1.368,0.485 h35.815c0.719,0,1.172-0.159,1.366-0.485C694.586,41.526,694.488,41.033,694.034,40.319 M673.387,19.867h3.715l-0.39,12.524 h-2.833L673.387,19.867z M676.564,35.473c-0.354-0.355-0.795-0.536-1.318-0.536c-0.523,0-0.963,0.18-1.321,0.536 c-0.359,0.357-0.538,0.802-0.538,1.323c0,0.524,0.179,0.961,0.538,1.323c0.358,0.354,0.799,0.534,1.321,0.534 c1.239,0,1.856-0.617,1.856-1.857C677.102,36.275,676.922,35.83,676.564,35.473"/><path fill="#00B956" d="M345.455,5.561h-10.227V1.47h-4.091v4.091h-12.273V1.47h-4.091v4.091h-10.227V46.47h40.909V5.561z M314.773,9.652v4.091h4.091V9.652h12.273v4.091h4.091V9.652h6.136v8.182h-32.727V9.652H314.773z M308.636,42.379V21.924h32.727 v20.455H308.636z"/><path fill="#008BFB" d="M371.755,48.745c-5.394,0-9.78-4.389-9.78-9.78V13.884c0-7.245,5.892-13.139,13.14-13.139 c7.242,0,13.137,5.895,13.137,13.139v19.157h-3.48V13.884c0-5.326-4.331-9.656-9.656-9.656c-5.326,0-9.659,4.331-9.659,9.656 v25.081c0,3.473,2.828,6.3,6.3,6.3c3.473,0,6.3-2.827,6.3-6.3V17.894c0-1.516-1.237-2.751-2.751-2.751 c-1.519,0-2.756,1.235-2.756,2.751l0.005,10.765h-3.48l-0.005-10.765c0-3.435,2.796-6.234,6.237-6.234 c3.435,0,6.231,2.799,6.231,6.234v21.032C381.536,44.356,377.147,48.745,371.755,48.745"/><g stroke="#9A9A99" stroke-linejoin="round" stroke-miterlimit="10" stroke-width="4"><path fill="#EA5B2B" d="M402.5 47.947L447.5 2.947"/><path fill="none" d="M447.5 47.947L402.5 2.947"/></g><g fill="#00B956"><path d="M495.5,23.38l3.46-4l-2.98-2.68l-3.64,4.3c-1.64-1.052-3.374-1.949-5.18-2.68l2.2-5.6l-3.72-1.46 l-2.28,5.8c-1.92-0.493-3.882-0.801-5.86-0.92V10h-4v6.14c-1.979,0.125-3.941,0.44-5.86,0.94l-2.28-5.8l-3.72,1.46l2.2,5.6 c-1.806,0.724-3.54,1.615-5.18,2.66l-3.64-4.3l-3.04,2.6l3.46,4c-1.396,1.142-2.713,2.378-3.94,3.7l2.92,3 c5.189-6.303,12.915-9.969,21.08-10c8.161-0.005,15.89,3.669,21.04,10l2.96-3C498.251,25.704,496.914,24.494,495.5,23.38z"/><path d="M475.5,24c-4.418,0-8,3.582-8,8c0,4.418,3.582,8,8,8c4.418,0,8-3.582,8-8 C483.5,27.581,479.918,24,475.5,24z M475.5,36c-2.209,0-4-1.791-4-4c0-2.209,1.791-4,4-4c2.209,0,4,1.791,4,4 C479.5,34.209,477.709,36,475.5,36z"/></g><g fill="#E96980"><path d="M545.5,24.38l3.46-4l-2.98-2.68l-3.64,4.3c-1.64-1.052-3.374-1.949-5.18-2.68l2.2-5.6l-3.72-1.46 l-2.28,5.8c-1.92-0.493-3.882-0.801-5.86-0.92V11h-4v6.14c-1.979,0.125-3.941,0.44-5.86,0.94l-2.28-5.8l-3.72,1.46l2.2,5.6 c-1.806,0.724-3.54,1.615-5.18,2.66l-3.64-4.3l-3.04,2.6l3.46,4c-1.396,1.142-2.713,2.378-3.94,3.7l2.92,3 c5.189-6.303,12.915-9.969,21.08-10c8.161-0.005,15.89,3.669,21.04,10l2.96-3C548.251,26.704,546.914,25.494,545.5,24.38z"/><path d="M525.5,25c-4.418,0-8,3.582-8,8c0,4.418,3.582,8,8,8c4.418,0,8-3.582,8-8 C533.5,28.581,529.918,25,525.5,25z M525.5,37c-2.209,0-4-1.791-4-4c0-2.209,1.791-4,4-4c2.209,0,4,1.791,4,4 C529.5,35.209,527.709,37,525.5,37z"/></g><g fill="#676868"><path d="M554.64 27.893l-3.3 4.62 3.26 2.48 3.3-4.6c1.695 1.031 3.483 1.902 5.34 2.6l-1.74 5.42 3.84 1.26 1.72-5.4c1.964.514 3.974.836 6 .96v5.76h4v-5.68c2.026-.124 4.036-.446 6-.96l1.72 5.4 3.84-1.26-1.86-5.5c1.863-.749 3.651-1.673 5.34-2.76l3.3 4.76 3.26-2.4-3.3-4.62c1.307-1.102 2.524-2.306 3.64-3.6l-3.02-2.7c-9.891 11.598-27.312 12.982-38.91 3.09-1.11-.947-2.143-1.98-3.09-3.09l-2.98 2.7C552.119 25.64 553.336 26.817 554.64 27.893zM589 16.833l2-3.54c-9.901-5.716-22.099-5.716-32 0l2 3.54C569.663 11.832 580.337 11.832 589 16.833z"/></g><g fill="#E96980"><path d="M604.64 27.893l-3.3 4.62 3.26 2.48 3.3-4.6c1.695 1.031 3.483 1.902 5.34 2.6l-1.74 5.42 3.84 1.26 1.72-5.4c1.964.514 3.974.836 6 .96v5.76h4v-5.68c2.026-.124 4.036-.446 6-.96l1.72 5.4 3.84-1.26-1.86-5.5c1.863-.749 3.651-1.673 5.34-2.76l3.3 4.76 3.26-2.4-3.3-4.62c1.307-1.102 2.524-2.306 3.64-3.6l-3.02-2.7c-9.891 11.598-27.312 12.982-38.91 3.09-1.11-.947-2.143-1.98-3.09-3.09l-2.98 2.7C602.119 25.64 603.336 26.817 604.64 27.893zM639 16.833l2-3.54c-9.901-5.716-22.099-5.716-32 0l2 3.54C619.663 11.832 630.337 11.832 639 16.833z"/></g><g fill="#E96980"><path d="M125.002,1.942c-12.681,0-23.002,10.317-23.002,23s10.321,23.002,23.002,23.002 c12.679,0,22.998-10.319,22.998-23.002S137.681,1.942,125.002,1.942 M125.002,44.252c-10.65,0-19.309-8.665-19.309-19.31 c0-10.644,8.658-19.309,19.309-19.309c10.646,0,19.305,8.665,19.305,19.309C144.307,35.588,135.648,44.252,125.002,44.252"/><path d="M124.917 35.211c-1.292 0-2.333 1.045-2.333 2.337 0 1.294 1.041 2.337 2.333 2.337 1.291 0 2.336-1.043 2.336-2.337C127.253 36.257 126.208 35.211 124.917 35.211M123.016 10.833H126.708V31.714H123.016z"/></g><path fill="#FFF" d="M825.396,10.688c7.894,0,14.312,6.421,14.312,14.312c0,7.894-6.421,14.312-14.312,14.312 S811.083,32.892,811.083,25S817.504,10.688,825.396,10.688 M825.396,1c-13.254,0-24,10.746-24,24c0,13.255,10.746,24,24,24 c13.255,0,24-10.745,24-24C849.396,11.746,838.65,1,825.396,1L825.396,1z"/><circle cx="813.178" cy="10.208" r="4.761" fill="#00B956"/><path fill="#EAEAE9" d="M875.7,10.688c7.894,0,14.312,6.421,14.312,14.312c0,7.894-6.421,14.312-14.312,14.312 S861.388,32.892,861.388,25S867.809,10.688,875.7,10.688 M875.7,1c-13.254,0-24,10.746-24,24c0,13.255,10.746,24,24,24 c13.255,0,24-10.745,24-24C899.7,11.746,888.955,1,875.7,1L875.7,1z"/><circle cx="863.483" cy="10.208" r="4.761" fill="#00B956"/><g fill="#9A9A99"><path d="M963.666,21.06c-0.003,0-0.006,0.001-0.01,0.001h-8c-0.423,0-0.824-0.09-1.189-0.249 c-0.88-0.381-1.54-1.169-1.743-2.127c-0.001-0.007-0.005-0.013-0.006-0.02c-0.011-0.053-0.009-0.109-0.017-0.163 c-0.021-0.145-0.045-0.29-0.045-0.441V18.06v-7.999V6.086c-1.207,0.914-2,2.348-2,3.975v8c0,2.757,2.243,5,5,5h8 c1.628,0,3.062-0.794,3.976-2.001H963.666z"/><path d="M969.678,3.023c0.542,0,1,0.458,1,1v12c0,0.542-0.458,1-1,1h-12c-0.543,0-1-0.458-1-1v-12 c0-0.542,0.457-1,1-1H969.678 M969.678,1.023h-12c-1.65,0-3,1.35-3,3v12c0,1.65,1.35,3,3,3h12c1.649,0,3-1.35,3-3v-12 C972.678,2.374,971.327,1.023,969.678,1.023L969.678,1.023z"/></g><g fill="#FFF"><path d="M990.106,21.036c-0.003,0-0.006,0.001-0.01,0.001h-8c-0.423,0-0.824-0.09-1.19-0.249 c-0.88-0.381-1.54-1.169-1.743-2.127c-0.001-0.007-0.005-0.013-0.006-0.02c-0.011-0.053-0.009-0.109-0.017-0.163 c-0.022-0.145-0.045-0.29-0.045-0.44v-0.001v-7.999V6.062c-1.207,0.914-2,2.348-2,3.975v8c0,2.757,2.243,5,5,5h8 c1.628,0,3.062-0.794,3.976-2.001H990.106z"/><path d="M996.118,3c0.542,0,1,0.458,1,1v12c0,0.542-0.458,1-1,1h-12c-0.543,0-1-0.458-1-1V4c0-0.542,0.457-1,1-1 H996.118 M996.118,1h-12c-1.65,0-3,1.35-3,3v12c0,1.65,1.35,3,3,3h12c1.649,0,3-1.35,3-3V4C999.118,2.35,997.768,1,996.118,1 L996.118,1z"/></g><g fill="#00B956"><path d="M1236.115 165.76L1223.04 178.836 1217.885 173.683 1215.277 176.291 1223.01 184.029 1223.037 184.002 1223.066 184.031 1238.726 168.373z"/><path d="M1226.999,156.229c10.295,0,18.667,8.375,18.667,18.667c0,10.292-8.372,18.667-18.667,18.667 c-10.29,0-18.667-8.375-18.667-18.667C1208.332,164.604,1216.709,156.229,1226.999,156.229 M1226.999,153.895 c-11.597,0-21,9.403-21,21c0,11.6,9.403,21,21,21s21-9.4,21-21C1247.999,163.299,1238.596,153.895,1226.999,153.895"/></g><path fill="#B3B2B2" d="M1227.002,206.231c10.295,0,18.667,8.375,18.667,18.667c0,10.292-8.372,18.667-18.667,18.667 c-10.29,0-18.667-8.375-18.667-18.667C1208.335,214.606,1216.712,206.231,1227.002,206.231 M1227.002,203.898 c-11.598,0-21,9.402-21,21c0,11.6,9.402,21,21,21s21-9.4,21-21C1248.002,213.301,1238.6,203.898,1227.002,203.898"/><g><path fill="#9A9A99" d="M993.7,33.5l-7.8,9.4l-3.6-3.7l-1.8,1.8c3.6,3.7,5.4,5.5,5.5,5.5s3.3-3.8,9.5-11.3 L993.7,33.5z"/><path fill="#00B956" d="M967.7,33.5l-7.8,9.4l-3.6-3.7l-1.8,1.8c3.6,3.7,5.4,5.5,5.5,5.5s3.3-3.8,9.5-11.3 L967.7,33.5z"/><path fill="#FFF" d="M942.7,33.5l-7.8,9.4l-3.6-3.7l-1.8,1.8c3.6,3.7,5.4,5.5,5.5,5.5s3.3-3.8,9.5-11.3L942.7,33.5z"/></g><g fill="#00B956"><path d="M912.602,26.29c-6.065,0-11.002,4.934-11.002,11c0,6.065,4.936,11,11.002,11 c6.064,0,10.998-4.936,10.998-11C923.601,31.224,918.666,26.29,912.602,26.29 M912.602,46.525c-5.094,0-9.235-4.143-9.235-9.235 c0-5.091,4.142-9.235,9.235-9.235c5.092,0,9.232,4.144,9.232,9.235C921.834,42.383,917.694,46.525,912.602,46.525"/><path d="M912.774,30.012h-0.741v7.601c0,0.199,0.177,0.391,0.374,0.391h6.435v-0.74h-6.067V30.012z"/></g><g><path fill="#9A9A99" d="M172.534,8.828c0-0.7-0.3-1.3-0.7-1.8l-0.9-0.9c-0.5-0.4-1.2-0.7-1.8-0.7l0,0c-0.7,0-1.3,0.3-1.8,0.7 l-9.2,9.2l-1.6,5.1l1,1l5.1-1.7l9.2-9.2C172.234,10.128,172.534,9.528,172.534,8.828z M162.134,18.928l-4.4,1.4l-0.1-0.1 l1.4-4.4l7.9-7.9l3,3L162.134,18.928z M171.134,9.928l-0.4,0.4l-3-3l0.4-0.4c0.6-0.6,1.6-0.6,2.1,0l0.9,0.9 c0.2,0.2,0.4,0.6,0.4,1C171.534,9.228,171.334,9.628,171.134,9.928z"/><path fill="#00B956" d="M171.375 32.161c0-.7-.3-1.3-.7-1.8l-.9-.9c-.5-.4-1.2-.7-1.8-.7l0 0c-.7 0-1.3.3-1.8.7l-9.2 9.2-1.6 5.1 1 1 5.1-1.7 9.2-9.2C171.075 33.461 171.375 32.861 171.375 32.161zM160.975 42.261l-4.4 1.4-.1-.1 1.4-4.4 7.9-7.9 3 3L160.975 42.261zM169.975 33.261l-.4.4-3-3 .4-.4c.6-.6 1.6-.6 2.1 0l.9.9c.2.2.4.6.4 1C170.375 32.561 170.175 32.961 169.975 33.261zM185.142 28.678l-1.08 2h-3.52v4h1l1 10h8l1-10h1v-4h-3.52l-1.08-2H185.142zM189.542 43.678h-6l-.9-9h7.89L189.542 43.678zM191.542 31.678v2h-10v-2h3.12l1.08-2h1.6l1.08 2H191.542z"/></g><g><path fill="#F8B033" d="M1174.984,185.605c2.529,2.331,5.927,3.745,9.623,3.745c7.938,0,14.363-6.475,14.363-14.438 c0-7.985-6.425-14.461-14.363-14.461c-3.695,0-7.094,1.416-9.623,3.745c-2.9,2.654-4.739,6.475-4.739,10.716 C1170.245,179.155,1172.083,182.974,1174.984,185.605L1174.984,185.605z"/><path fill="#F8B033" d="M1197.059,182.95c0-0.249,0.199-0.445,0.447-0.445c0.274,0,0.47,0.198,0.47,0.445 c0,0.273-0.195,0.472-0.47,0.472C1197.258,183.422,1197.059,183.223,1197.059,182.95L1197.059,182.95z M1197.506,183.322 c0.198,0,0.372-0.174,0.372-0.372c0-0.198-0.174-0.349-0.372-0.349c-0.172,0-0.348,0.15-0.348,0.349 C1197.159,183.148,1197.334,183.322,1197.506,183.322L1197.506,183.322z M1197.456,183.173h-0.098v-0.421h0.172 c0.025,0,0.076,0,0.099,0.023c0.051,0.024,0.051,0.049,0.051,0.101c0,0.049-0.023,0.098-0.073,0.098l0.099,0.199h-0.124 l-0.05-0.173h-0.075V183.173v-0.248h0.05c0.024,0,0.05,0,0.05,0c0.024,0,0.024-0.024,0.024-0.049c0-0.024,0-0.024-0.024-0.052 c0,0-0.024,0-0.05,0h-0.05v0.101V183.173L1197.456,183.173z"/><path fill="#E52833" d="M1179.622,173.375c-0.049-0.52-0.149-1.016-0.247-1.538h-8.78c0.098-0.52,0.247-1.017,0.394-1.513h7.963 c-0.173-0.521-0.371-1.043-0.598-1.537h-6.745c0.247-0.521,0.521-1.043,0.818-1.538h5.084c-0.322-0.522-0.694-1.043-1.091-1.515 h-2.901c0.446-0.544,0.944-1.064,1.462-1.537c-2.555-2.306-5.926-3.745-9.648-3.745c-7.912,0-14.361,6.476-14.361,14.461 c0,7.963,6.449,14.438,14.361,14.438c3.723,0,7.094-1.416,9.648-3.745l0,0l0,0c0.522-0.473,0.994-0.969,1.439-1.514h-2.901 c-0.396-0.495-0.746-0.993-1.092-1.538h5.084c0.324-0.496,0.596-0.993,0.842-1.539h-6.744c-0.224-0.495-0.446-0.991-0.622-1.511 h7.963c0.174-0.496,0.299-1.018,0.423-1.539c0.098-0.495,0.198-1.017,0.247-1.537c0.049-0.496,0.073-0.993,0.073-1.514 C1179.696,174.393,1179.671,173.871,1179.622,173.375L1179.622,173.375z"/><path fill="#FFF" d="M1197.059 178.263c0-.272.199-.473.447-.473.274 0 .47.2.47.473 0 .248-.195.472-.47.472C1197.258 178.734 1197.059 178.511 1197.059 178.263L1197.059 178.263zM1197.506 178.607c.198 0 .372-.148.372-.346 0-.198-.174-.349-.372-.349-.172 0-.348.15-.348.349C1197.158 178.459 1197.334 178.607 1197.506 178.607L1197.506 178.607zM1197.456 178.461h-.098v-.396h.172c.025 0 .076 0 .099 0 .051.023.051.073.051.122 0 .024-.023.075-.073.102l.099.172h-.124l-.05-.149h-.075V178.461v-.224h.05c.024 0 .05 0 .05-.024.024 0 .024-.024.024-.049 0 0 0-.024-.024-.024 0-.023-.024 0-.05 0h-.05v.099V178.461L1197.456 178.461zM1184.483 171.59l-.272 1.588c-.546-.273-.942-.396-1.389-.396-1.167 0-1.985 1.139-1.985 2.754 0 1.116.546 1.787 1.464 1.787.372 0 .818-.125 1.314-.373l-.271 1.66c-.57.151-.942.225-1.364.225-1.688 0-2.729-1.216-2.729-3.176 0-2.603 1.438-4.44 3.498-4.44.272 0 .521.026.718.075l.623.148C1184.285 171.514 1184.335 171.54 1184.483 171.59L1184.483 171.59zM1179.473 172.68c-.049 0-.098 0-.148 0-.52 0-.817.25-1.289.968l.147-.916h-1.413l-.967 5.952h1.562c.57-3.645.719-4.267 1.462-4.267.051 0 .051 0 .099 0 .151-.72.347-1.239.596-1.711L1179.473 172.68 1179.473 172.68zM1170.494 178.607c-.422.151-.768.201-1.115.201-.795 0-1.24-.446-1.24-1.316 0-.148.021-.347.049-.521l.099-.597.074-.471.67-4.067h1.539l-.175.895h.794l-.199 1.462h-.793l-.422 2.481c-.024.099-.024.173-.024.248 0 .298.148.422.522.422.172 0 .322 0 .421-.05L1170.494 178.607 1170.494 178.607zM1164.518 174.615c0 .745.347 1.268 1.165 1.663.644.298.743.396.743.645 0 .372-.271.546-.894.546-.472 0-.892-.074-1.388-.224l-.224 1.363.073.026.274.049c.1.025.222.051.422.051.346.049.644.049.842.049 1.638 0 2.406-.621 2.406-1.983 0-.817-.322-1.289-1.091-1.663-.669-.297-.746-.372-.746-.644 0-.323.273-.472.769-.472.299 0 .72.023 1.118.073l.222-1.363c-.396-.075-1.016-.125-1.364-.125C1165.112 172.606 1164.491 173.524 1164.518 174.615L1164.518 174.615zM1196.366 178.684h-1.464l.073-.57c-.421.445-.868.646-1.438.646-1.141 0-1.887-.969-1.887-2.457 0-1.983 1.166-3.672 2.53-3.672.62 0 1.068.273 1.489.819l.347-2.084h1.538L1196.366 178.684 1196.366 178.684zM1194.084 177.295c.718 0 1.215-.843 1.215-2.009 0-.771-.273-1.166-.819-1.166-.693 0-1.216.817-1.216 1.983C1193.264 176.898 1193.538 177.295 1194.084 177.295L1194.084 177.295zM1175.255 178.56c-.544.175-1.04.25-1.61.25-1.736 0-2.628-.918-2.628-2.679 0-2.035 1.14-3.548 2.703-3.548 1.29 0 2.109.845 2.109 2.158 0 .447-.05.868-.199 1.489h-3.075c-.026.072-.026.123-.026.172 0 .695.473 1.042 1.366 1.042.572 0 1.066-.099 1.612-.372L1175.255 178.56 1175.255 178.56zM1174.389 175.014c0-.124 0-.225 0-.3 0-.494-.274-.768-.744-.768-.495 0-.844.372-.992 1.067H1174.389L1174.389 175.014zM1158.588 178.684L1157.051 178.684 1157.941 173.055 1155.934 178.684 1154.867 178.684 1154.744 173.104 1153.8 178.684 1152.363 178.684 1153.577 171.366 1155.81 171.366 1155.884 175.905 1157.372 171.366 1159.804 171.366zM1162.434 176.029c-.149 0-.225-.025-.348-.025-.868 0-1.317.323-1.317.919 0 .372.201.595.546.595C1161.962 177.518 1162.408 176.923 1162.434 176.029L1162.434 176.029zM1163.574 178.684h-1.29l.026-.619c-.396.494-.918.719-1.639.719-.842 0-1.414-.645-1.414-1.611 0-1.465.992-2.307 2.728-2.307.174 0 .397.024.646.049.048-.198.048-.271.048-.372 0-.396-.271-.545-.991-.545-.446 0-.941.05-1.289.149l-.224.074-.15.023.225-1.34c.767-.223 1.289-.298 1.86-.298 1.339 0 2.061.596 2.061 1.737 0 .299-.025.521-.126 1.19l-.347 2.108-.05.373-.023.297-.026.223L1163.574 178.684 1163.574 178.684zM1186.989 176.029c-.174 0-.248-.025-.348-.025-.894 0-1.341.323-1.341.919 0 .372.225.595.574.595C1186.492 177.518 1186.963 176.923 1186.989 176.029L1186.989 176.029zM1188.13 178.684h-1.29l.025-.619c-.397.494-.918.719-1.639.719-.842 0-1.416-.645-1.416-1.611 0-1.465.995-2.307 2.729-2.307.176 0 .398.024.622.049.052-.198.073-.271.073-.372 0-.396-.273-.545-.991-.545-.448 0-.966.05-1.313.149l-.2.074-.149.023.223-1.34c.769-.223 1.288-.298 1.861-.298 1.338 0 2.031.596 2.031 1.737 0 .299 0 .521-.122 1.19l-.321 2.108-.051.373-.049.297-.025.223v.148H1188.13zM1192.298 172.68c-.05 0-.101 0-.15 0-.52 0-.817.25-1.288.968l.148-.916h-1.414l-.944 5.952h1.539c.571-3.645.719-4.267 1.463-4.267.05 0 .05 0 .101 0 .148-.72.347-1.239.594-1.711L1192.298 172.68 1192.298 172.68z"/><g><g fill="#184892"><path d="M1171.611 232.555L1167.695 232.555 1170.144 217.51 1174.06 217.51zM1164.4 217.51l-3.734 10.349-.441-2.229v.002l-1.317-6.765c0 0-.16-1.356-1.858-1.356h-6.174l-.072.255c0 0 1.888.392 4.099 1.719l3.4 13.071h4.081l6.23-15.045H1164.4zM1195.208 232.555h3.595l-3.137-15.045h-3.147c-1.454 0-1.81 1.12-1.81 1.12l-5.838 13.925h4.08l.816-2.236h4.98L1195.208 232.555zM1190.898 227.232l2.056-5.631 1.16 5.631H1190.898zM1185.176 221.127l.559-3.23c0 0-1.726-.656-3.521-.656-1.943 0-6.559.852-6.559 4.981 0 3.887 5.416 3.935 5.416 5.976 0 2.039-4.858 1.676-6.462.389l-.583 3.375c0 0 1.75.852 4.424.852 2.671 0 6.703-1.385 6.703-5.151 0-3.91-5.465-4.274-5.465-5.974C1179.688 219.987 1183.5 220.203 1185.176 221.127z"/></g><path fill="#F0AD1D" d="M1160.225,225.63l-1.317-6.765c0,0-0.16-1.356-1.858-1.356h-6.174l-0.072,0.255 c0,0,2.968,0.613,5.813,2.919C1159.338,222.885,1160.225,225.63,1160.225,225.63z"/></g><g><g fill="#2AA84D"><path d="M1027.725 167.63l-3.034 6.57h-.31v-7.998h-4.309v13.539h3.658c.96 0 1.834-.56 2.236-1.428l3.033-6.57h.309v7.998h4.31v-13.539h-3.657C1029 166.202 1028.125 166.762 1027.725 167.63M1011.566 167.98l-1.797 6.221h-.309l-1.796-6.221c-.304-1.053-1.271-1.777-2.369-1.777H1001v13.539h4.309v-7.998h.31l2.461 7.998h3.079l2.459-7.998h.31v7.998h4.308v-13.539h-4.301C1012.829 166.202 1011.869 166.927 1011.566 167.98M1035.461 172.355v7.38h4.295v-4.31h4.626c2.007 0 3.711-1.282 4.349-3.078h-13.27V172.355z"/></g><defs><path id="o" d="M1034.849,166.202c0.58,3.151,3.338,5.541,6.651,5.541h7.409c0.059-0.298,0.091-0.607,0.091-0.923 c0-2.545-2.065-4.618-4.618-4.618H1034.849z"/></defs><clipPath id="p"><use overflow="visible" xlink:href="#o"/></clipPath><linearGradient id="q" x1="490.104" x2="491.968" y1="-521.948" y2="-521.948" gradientTransform="translate(-2684.892 4130.403) scale(7.5897)" gradientUnits="userSpaceOnUse"><stop offset="0" stop-color="#1ba7e0"/><stop offset=".211" stop-color="#12a1dc"/><stop offset=".555" stop-color="#1b93d2"/><stop offset=".987" stop-color="#167ec1"/><stop offset="1" stop-color="#107ec1"/></linearGradient><path fill="url(#q)" d="M1034.849 166.202H1049V171.743H1034.849z" clip-path="url(#p)"/></g></g><g><g fill="#00B956"><path d="M1102 209.467H1148V213.3H1102zM1102 222.868H1148V226.701H1102zM1102 236.3H1148V240.133H1102z"/></g><path fill="#00B956" d="M1101.787 194.879L1121.498 175.23 1101.787 155.612 1105.231 152.2 1124.819 171.91 1144.468 152.2 1147.911 155.612 1128.2 175.23 1147.911 194.879 1144.468 198.2 1124.819 178.551 1105.231 198.2z"/></g><g><path fill="none" stroke="#008BFB" stroke-miterlimit="10" stroke-width="1.5" d="M194.25,10.692 c0.902,1.439,1.37,3.166,1.235,4.989c-0.336,4.55-4.298,7.966-8.848,7.63c-4.551-0.333-7.966-4.295-7.63-8.846 s4.295-7.969,8.846-7.633 M184.004,3.333l4.227,3.553l-3.553,4.222"/></g><g><path fill="#9A9A99" d="M836.6,75.36c0.719-2.566-0.371-5.296-2.66-6.66V68c0-4.971-4.029-9-9-9c-4.971,0-9,4.03-9,9v0.7 c-2.217,1.422-3.247,4.123-2.54,6.66l-4.4,4.4v3.66l2.42,2.42l6.22-6.24c0.984,0.254,2.016,0.254,3,0 c0.51,1.083,1.332,1.988,2.36,2.6V91h3.42l2.58-2.58v-6.24c0.986-0.584,1.784-1.437,2.3-2.46c0.357-0.015,0.711-0.062,1.06-0.14 l6.22,6.22l2.42-2.38v-3.66L836.6,75.36z M825,61c3.835,0,6.956,3.085,7,6.92c-2.614-0.562-5.279,0.701-6.5,3.08 c-0.337,0.025-0.672,0.079-1,0.16c-0.27-0.606-0.642-1.16-1.1-1.64c-1.422-1.397-3.446-1.997-5.4-1.6 C818.044,64.085,821.165,61,825,61z M820,77c-0.013,0.22-0.013,0.44,0,0.66c-0.782,0.201-1.607,0.152-2.36-0.14l-0.6-0.24 L811.42,83L811,82.58v-2l4.72-4.7l-0.24-0.6c-0.771-2.07,0.283-4.373,2.353-5.144c1.44-0.536,3.059-0.2,4.167,0.864 c0.286,0.293,0.522,0.631,0.7,1C821.018,73.108,820.004,74.985,820,77z M827.6,80.66L827,81v6.66l-1.42,1.42H825V81l-0.6-0.26 c-2.025-0.884-2.95-3.242-2.066-5.266c0.472-1.08,1.396-1.898,2.526-2.234c-0.315,2.818,1.427,5.459,4.14,6.28 C828.626,80.002,828.147,80.391,827.6,80.66z M839,82.66l-0.42,0.42l-5.72-5.7l-0.6,0.24c-2.056,0.808-4.378-0.205-5.186-2.261 c-0.808-2.056,0.205-4.378,2.261-5.186c0.753-0.296,1.577-0.356,2.365-0.174c-0.305,1.127-0.89,2.159-1.7,3 c-0.428,0.349-0.492,0.979-0.143,1.407c0.349,0.428,0.979,0.492,1.407,0.143c0.016-0.013,0.031-0.026,0.047-0.04l0.11-0.11 c0.917-0.982,1.6-2.158,2-3.44l0.14,0.12c1.122,1.122,1.476,2.801,0.9,4.28l-0.24,0.6l4.78,4.62V82.66z"/></g><g><path fill="#333" d="M760.092,45.337c1.87-0.001,3.694-0.577,5.225-1.65l4.427,5.317l1.348-1.173 l-4.382-5.335c3.004-3.152,3.377-7.982,0.892-11.557c-2.485-3.575-7.143-4.909-11.143-3.191 c-4.001,1.718-6.241,6.013-5.361,10.277C751.979,42.289,755.738,45.345,760.092,45.337z M760.092,28.837 c4.05,0,7.333,3.283,7.333,7.333s-3.283,7.333-7.333,7.333s-7.333-3.283-7.333-7.333S756.042,28.837,760.092,28.837z"/></g></g></svg>